<svg width="2036.4931456071" height="443.739508622333" xmlns="http://www.w3.org/2000/svg">

<polygon points="
321.725788380427,222.672216064189 
344.295946173231,224.510029667819 
337.486393485005,100.488524620104 
1711.51778755695,100.488524620104 
1712.0828743962,184.08101348409 
1730.65001340027,182.628573728319 
1730.7842375418,104.33905965856 
1936.4931456071,109.583091154362 
1910.38190509257,172.788566675384 
1870.11882710767,203.58003322251 
1838.45794690877,230.99603490273 
1766.96421073467,254.700530846214 
1715.91130569775,259.689888851535 
1627.05620538519,266.925178733281 
1571.9823422948,265.970553573996 
1504.27635373258,261.120545214409 
1441.88679441313,257.561523227949 
1360.21733066028,248.161668849127 
1275.85825857275,233.472294124632 
1166.89836799285,210.987668183348 
1080.5803922647,200.955775066517 
1000.23330859827,190.883518604025 
931.863887584742,186.037995060623 
856.232588136373,186.549264105663 
802.557347007538,196.200588534833 
748.904529959625,209.16907522051 
704.571160943225,226.718801638714 
662.909460996768,246.904318597385 
598.121806394636,281.178885599847 
549.852690832273,305.389845428173 
494.913372227418,324.338193807933 
427.337443334543,338.727726536089 
372.967376041114,343.739508622333 
332.466602798432,339.369055250481 
269.346338784916,325.863031310683 
233.372987480546,304.2119404917 
181.997175678336,261.434162003315 
149.139169902168,209.906186794843 
128.321614205487,172.892998823682 
112.166024932654,138.502146944435 
100,105.411251070683 
311.608043068063,100 
319.717551761785,220.031940707537 
" fill="none" stroke="black"/>
<text x="321.725788380427" y="222.672216064189" font-size="20" dy="-2" text-anchor="middle" fill="red">0</text>
<text x="344.295946173231" y="224.510029667819" font-size="20" dy="-2" text-anchor="middle" fill="red">1</text>
<text x="337.486393485005" y="100.488524620104" font-size="20" dy="-2" text-anchor="middle" fill="red">2</text>
<text x="1711.51778755695" y="100.488524620104" font-size="20" dy="-2" text-anchor="middle" fill="red">3</text>
<text x="1712.0828743962" y="184.08101348409" font-size="20" dy="-2" text-anchor="middle" fill="red">4</text>
<text x="1730.65001340027" y="182.628573728319" font-size="20" dy="-2" text-anchor="middle" fill="red">5</text>
<text x="1730.7842375418" y="104.33905965856" font-size="20" dy="-2" text-anchor="middle" fill="red">6</text>
<text x="1936.4931456071" y="109.583091154362" font-size="20" dy="-2" text-anchor="middle" fill="red">7</text>
<text x="1910.38190509257" y="172.788566675384" font-size="20" dy="-2" text-anchor="middle" fill="red">8</text>
<text x="1870.11882710767" y="203.58003322251" font-size="20" dy="-2" text-anchor="middle" fill="red">9</text>
<text x="1838.45794690877" y="230.99603490273" font-size="20" dy="-2" text-anchor="middle" fill="red">10</text>
<text x="1766.96421073467" y="254.700530846214" font-size="20" dy="-2" text-anchor="middle" fill="red">11</text>
<text x="1715.91130569775" y="259.689888851535" font-size="20" dy="-2" text-anchor="middle" fill="red">12</text>
<text x="1627.05620538519" y="266.925178733281" font-size="20" dy="-2" text-anchor="middle" fill="red">13</text>
<text x="1571.9823422948" y="265.970553573996" font-size="20" dy="-2" text-anchor="middle" fill="red">14</text>
<text x="1504.27635373258" y="261.120545214409" font-size="20" dy="-2" text-anchor="middle" fill="red">15</text>
<text x="1441.88679441313" y="257.561523227949" font-size="20" dy="-2" text-anchor="middle" fill="red">16</text>
<text x="1360.21733066028" y="248.161668849127" font-size="20" dy="-2" text-anchor="middle" fill="red">17</text>
<text x="1275.85825857275" y="233.472294124632" font-size="20" dy="-2" text-anchor="middle" fill="red">18</text>
<text x="1166.89836799285" y="210.987668183348" font-size="20" dy="-2" text-anchor="middle" fill="red">19</text>
<text x="1080.5803922647" y="200.955775066517" font-size="20" dy="-2" text-anchor="middle" fill="red">20</text>
<text x="1000.23330859827" y="190.883518604025" font-size="20" dy="-2" text-anchor="middle" fill="red">21</text>
<text x="931.863887584742" y="186.037995060623" font-size="20" dy="-2" text-anchor="middle" fill="red">22</text>
<text x="856.232588136373" y="186.549264105663" font-size="20" dy="-2" text-anchor="middle" fill="red">23</text>
<text x="802.557347007538" y="196.200588534833" font-size="20" dy="-2" text-anchor="middle" fill="red">24</text>
<text x="748.904529959625" y="209.16907522051" font-size="20" dy="-2" text-anchor="middle" fill="red">25</text>
<text x="704.571160943225" y="226.718801638714" font-size="20" dy="-2" text-anchor="middle" fill="red">26</text>
<text x="662.909460996768" y="246.904318597385" font-size="20" dy="-2" text-anchor="middle" fill="red">27</text>
<text x="598.121806394636" y="281.178885599847" font-size="20" dy="-2" text-anchor="middle" fill="red">28</text>
<text x="549.852690832273" y="305.389845428173" font-size="20" dy="-2" text-anchor="middle" fill="red">29</text>
<text x="494.913372227418" y="324.338193807933" font-size="20" dy="-2" text-anchor="middle" fill="red">30</text>
<text x="427.337443334543" y="338.727726536089" font-size="20" dy="-2" text-anchor="middle" fill="red">31</text>
<text x="372.967376041114" y="343.739508622333" font-size="20" dy="-2" text-anchor="middle" fill="red">32</text>
<text x="332.466602798432" y="339.369055250481" font-size="20" dy="-2" text-anchor="middle" fill="red">33</text>
<text x="269.346338784916" y="325.863031310683" font-size="20" dy="-2" text-anchor="middle" fill="red">34</text>
<text x="233.372987480546" y="304.2119404917" font-size="20" dy="-2" text-anchor="middle" fill="red">35</text>
<text x="181.997175678336" y="261.434162003315" font-size="20" dy="-2" text-anchor="middle" fill="red">36</text>
<text x="149.139169902168" y="209.906186794843" font-size="20" dy="-2" text-anchor="middle" fill="red">37</text>
<text x="128.321614205487" y="172.892998823682" font-size="20" dy="-2" text-anchor="middle" fill="red">38</text>
<text x="112.166024932654" y="138.502146944435" font-size="20" dy="-2" text-anchor="middle" fill="red">39</text>
<text x="100" y="105.411251070683" font-size="20" dy="-2" text-anchor="middle" fill="red">40</text>
<text x="311.608043068063" y="100" font-size="20" dy="-2" text-anchor="middle" fill="red">41</text>
<text x="319.717551761785" y="220.031940707537" font-size="20" dy="-2" text-anchor="middle" fill="red">42</text>
<polygon points="662.909460996768,246.904318597385 598.121806394636,281.178885599847 321.725788380427,222.672216064189" fill="none" stroke="red"/>
<polygon points="598.121806394636,281.178885599847 549.852690832273,305.389845428173 321.725788380427,222.672216064189" fill="none" stroke="red"/>
<polygon points="549.852690832273,305.389845428173 494.913372227418,324.338193807933 321.725788380427,222.672216064189" fill="none" stroke="red"/>
<polygon points="494.913372227418,324.338193807933 427.337443334543,338.727726536089 321.725788380427,222.672216064189" fill="none" stroke="red"/>
<polygon points="427.337443334543,338.727726536089 372.967376041114,343.739508622333 321.725788380427,222.672216064189" fill="none" stroke="red"/>
<polygon points="372.967376041114,343.739508622333 332.466602798432,339.369055250481 321.725788380427,222.672216064189" fill="none" stroke="red"/>
<polygon points="332.466602798432,339.369055250481 269.346338784916,325.863031310683 321.725788380427,222.672216064189" fill="none" stroke="red"/>
<polygon points="269.346338784916,325.863031310683 233.372987480546,304.2119404917 321.725788380427,222.672216064189" fill="none" stroke="red"/>
<polygon points="233.372987480546,304.2119404917 181.997175678336,261.434162003315 321.725788380427,222.672216064189" fill="none" stroke="red"/>
<polygon points="181.997175678336,261.434162003315 149.139169902168,209.906186794843 321.725788380427,222.672216064189" fill="none" stroke="red"/>
<polygon points="149.139169902168,209.906186794843 128.321614205487,172.892998823682 321.725788380427,222.672216064189" fill="none" stroke="red"/>
<polygon points="128.321614205487,172.892998823682 112.166024932654,138.502146944435 321.725788380427,222.672216064189" fill="none" stroke="red"/>
<polygon points="112.166024932654,138.502146944435 100,105.411251070683 321.725788380427,222.672216064189" fill="none" stroke="red"/>
<polygon points="100,105.411251070683 311.608043068063,100 321.725788380427,222.672216064189" fill="none" stroke="red"/>
<polygon points="344.295946173231,224.510029667819 662.909460996768,246.904318597385 321.725788380427,222.672216064189" fill="none" stroke="red"/>
<polygon points="1766.96421073467,254.700530846214 1715.91130569775,259.689888851535 978.182989052859,143.263259840363" fill="none" stroke="red"/>
<polygon points="1715.91130569775,259.689888851535 1627.05620538519,266.925178733281 978.182989052859,143.263259840363" fill="none" stroke="red"/>
<polygon points="1627.05620538519,266.925178733281 1571.9823422948,265.970553573996 978.182989052859,143.263259840363" fill="none" stroke="red"/>
<polygon points="1571.9823422948,265.970553573996 1504.27635373258,261.120545214409 978.182989052859,143.263259840363" fill="none" stroke="red"/>
<polygon points="1504.27635373258,261.120545214409 1441.88679441313,257.561523227949 978.182989052859,143.263259840363" fill="none" stroke="red"/>
<polygon points="1441.88679441313,257.561523227949 1360.21733066028,248.161668849127 978.182989052859,143.263259840363" fill="none" stroke="red"/>
<polygon points="1360.21733066028,248.161668849127 1275.85825857275,233.472294124632 978.182989052859,143.263259840363" fill="none" stroke="red"/>
<polygon points="1275.85825857275,233.472294124632 1166.89836799285,210.987668183348 978.182989052859,143.263259840363" fill="none" stroke="red"/>
<polygon points="1166.89836799285,210.987668183348 1080.5803922647,200.955775066517 978.182989052859,143.263259840363" fill="none" stroke="red"/>
<polygon points="1080.5803922647,200.955775066517 1000.23330859827,190.883518604025 978.182989052859,143.263259840363" fill="none" stroke="red"/>
<polygon points="1000.23330859827,190.883518604025 931.863887584742,186.037995060623 978.182989052859,143.263259840363" fill="none" stroke="red"/>
<polygon points="931.863887584742,186.037995060623 856.232588136373,186.549264105663 978.182989052859,143.263259840363" fill="none" stroke="red"/>
<polygon points="856.232588136373,186.549264105663 802.557347007538,196.200588534833 978.182989052859,143.263259840363" fill="none" stroke="red"/>
<polygon points="802.557347007538,196.200588534833 748.904529959625,209.16907522051 978.182989052859,143.263259840363" fill="none" stroke="red"/>
<polygon points="748.904529959625,209.16907522051 704.571160943225,226.718801638714 978.182989052859,143.263259840363" fill="none" stroke="red"/>
<polygon points="704.571160943225,226.718801638714 662.909460996768,246.904318597385 978.182989052859,143.263259840363" fill="none" stroke="red"/>
<polygon points="1712.0828743962,184.08101348409 1766.96421073467,254.700530846214 978.182989052859,143.263259840363" fill="none" stroke="red"/>
<polygon points="344.295946173231,224.510029667819 337.486393485005,100.488524620104 978.182989052859,143.263259840363" fill="none" stroke="red"/>
<polygon points="337.486393485005,100.488524620104 1711.51778755695,100.488524620104 978.182989052859,143.263259840363" fill="none" stroke="red"/>
<polygon points="1711.51778755695,100.488524620104 1712.0828743962,184.08101348409 978.182989052859,143.263259840363" fill="none" stroke="red"/>
<polygon points="662.909460996768,246.904318597385 344.295946173231,224.510029667819 978.182989052859,143.263259840363" fill="none" stroke="red"/>
<polygon points="1730.7842375418,104.33905965856 1936.4931456071,109.583091154362 1730.65001340027,182.628573728319" fill="none" stroke="red"/>
<polygon points="1936.4931456071,109.583091154362 1910.38190509257,172.788566675384 1730.65001340027,182.628573728319" fill="none" stroke="red"/>
<polygon points="1910.38190509257,172.788566675384 1870.11882710767,203.58003322251 1730.65001340027,182.628573728319" fill="none" stroke="red"/>
<polygon points="1870.11882710767,203.58003322251 1838.45794690877,230.99603490273 1730.65001340027,182.628573728319" fill="none" stroke="red"/>
<polygon points="1838.45794690877,230.99603490273 1766.96421073467,254.700530846214 1730.65001340027,182.628573728319" fill="none" stroke="red"/>
<polygon points="1766.96421073467,254.700530846214 1712.0828743962,184.08101348409 1730.65001340027,182.628573728319" fill="none" stroke="red"/>
<rect x="0" y="0" width="100" height="100" stroke="green" fill='none'/>

</svg>
