<svg width="2166.15837421163" height="670.838121934127" xmlns="http://www.w3.org/2000/svg">

<polygon points="
1740.7119831815,342.64050455501 
1714.71478626489,337.826208829712 
1724.34337771549,105.777154870357 
350.343377715487,105.777154870357 
354.194814295725,341.677645409951 
323.383321653819,342.64050455501 
318.569025928521,99.9999999999998 
120.220042046251,104.814295725298 
106.740014015417,217.468815697267 
104.814295725298,264.648913805185 
100,354.194814295725 
125.034337771549,443.740714786265 
187.62018220042,519.80658724597 
228.060266292922,543.87806587246 
289.683251576734,567.949544498949 
362.860546601261,570.838121934127 
414.854940434478,554.469516468115 
491.883672039243,524.620882971268 
562.172389628591,484.180798878766 
640.163980378416,463.960756832515 
780.741415557113,460.109320252277 
909.764540995094,459.146461107218 
976.201822004205,462.035038542396 
1073.45059565522,473.589348283111 
1169.73651016118,487.069376313945 
1292.9824807288,509.215136650315 
1422.00560616678,529.435178696566 
1531.77154870357,547.729502452698 
1614.5774351787,564.09810791871 
1728.19481429573,569.875262789068 
1814.85213735109,558.320953048353 
1879.36370007008,537.138051857042 
1938.09810791871,486.106517168886 
1985.27820602663,396.560616678346 
2011.27540294324,327.234758234057 
2032.45830413455,263.686054660126 
2048.82690960056,200.137351086195 
2066.15837421163,111.554309740715 
1756.11772950245,105.777154870357 
1742.63770147162,331.086194814296 
" fill="none" stroke="black"/>
<text x="1740.7119831815" y="342.64050455501" font-size="20" dy="-2" text-anchor="middle" fill="red">0</text>
<text x="1714.71478626489" y="337.826208829712" font-size="20" dy="-2" text-anchor="middle" fill="red">1</text>
<text x="1724.34337771549" y="105.777154870357" font-size="20" dy="-2" text-anchor="middle" fill="red">2</text>
<text x="350.343377715487" y="105.777154870357" font-size="20" dy="-2" text-anchor="middle" fill="red">3</text>
<text x="354.194814295725" y="341.677645409951" font-size="20" dy="-2" text-anchor="middle" fill="red">4</text>
<text x="323.383321653819" y="342.64050455501" font-size="20" dy="-2" text-anchor="middle" fill="red">5</text>
<text x="318.569025928521" y="99.9999999999998" font-size="20" dy="-2" text-anchor="middle" fill="red">6</text>
<text x="120.220042046251" y="104.814295725298" font-size="20" dy="-2" text-anchor="middle" fill="red">7</text>
<text x="106.740014015417" y="217.468815697267" font-size="20" dy="-2" text-anchor="middle" fill="red">8</text>
<text x="104.814295725298" y="264.648913805185" font-size="20" dy="-2" text-anchor="middle" fill="red">9</text>
<text x="100" y="354.194814295725" font-size="20" dy="-2" text-anchor="middle" fill="red">10</text>
<text x="125.034337771549" y="443.740714786265" font-size="20" dy="-2" text-anchor="middle" fill="red">11</text>
<text x="187.62018220042" y="519.80658724597" font-size="20" dy="-2" text-anchor="middle" fill="red">12</text>
<text x="228.060266292922" y="543.87806587246" font-size="20" dy="-2" text-anchor="middle" fill="red">13</text>
<text x="289.683251576734" y="567.949544498949" font-size="20" dy="-2" text-anchor="middle" fill="red">14</text>
<text x="362.860546601261" y="570.838121934127" font-size="20" dy="-2" text-anchor="middle" fill="red">15</text>
<text x="414.854940434478" y="554.469516468115" font-size="20" dy="-2" text-anchor="middle" fill="red">16</text>
<text x="491.883672039243" y="524.620882971268" font-size="20" dy="-2" text-anchor="middle" fill="red">17</text>
<text x="562.172389628591" y="484.180798878766" font-size="20" dy="-2" text-anchor="middle" fill="red">18</text>
<text x="640.163980378416" y="463.960756832515" font-size="20" dy="-2" text-anchor="middle" fill="red">19</text>
<text x="780.741415557113" y="460.109320252277" font-size="20" dy="-2" text-anchor="middle" fill="red">20</text>
<text x="909.764540995094" y="459.146461107218" font-size="20" dy="-2" text-anchor="middle" fill="red">21</text>
<text x="976.201822004205" y="462.035038542396" font-size="20" dy="-2" text-anchor="middle" fill="red">22</text>
<text x="1073.45059565522" y="473.589348283111" font-size="20" dy="-2" text-anchor="middle" fill="red">23</text>
<text x="1169.73651016118" y="487.069376313945" font-size="20" dy="-2" text-anchor="middle" fill="red">24</text>
<text x="1292.9824807288" y="509.215136650315" font-size="20" dy="-2" text-anchor="middle" fill="red">25</text>
<text x="1422.00560616678" y="529.435178696566" font-size="20" dy="-2" text-anchor="middle" fill="red">26</text>
<text x="1531.77154870357" y="547.729502452698" font-size="20" dy="-2" text-anchor="middle" fill="red">27</text>
<text x="1614.5774351787" y="564.09810791871" font-size="20" dy="-2" text-anchor="middle" fill="red">28</text>
<text x="1728.19481429573" y="569.875262789068" font-size="20" dy="-2" text-anchor="middle" fill="red">29</text>
<text x="1814.85213735109" y="558.320953048353" font-size="20" dy="-2" text-anchor="middle" fill="red">30</text>
<text x="1879.36370007008" y="537.138051857042" font-size="20" dy="-2" text-anchor="middle" fill="red">31</text>
<text x="1938.09810791871" y="486.106517168886" font-size="20" dy="-2" text-anchor="middle" fill="red">32</text>
<text x="1985.27820602663" y="396.560616678346" font-size="20" dy="-2" text-anchor="middle" fill="red">33</text>
<text x="2011.27540294324" y="327.234758234057" font-size="20" dy="-2" text-anchor="middle" fill="red">34</text>
<text x="2032.45830413455" y="263.686054660126" font-size="20" dy="-2" text-anchor="middle" fill="red">35</text>
<text x="2048.82690960056" y="200.137351086195" font-size="20" dy="-2" text-anchor="middle" fill="red">36</text>
<text x="2066.15837421163" y="111.554309740715" font-size="20" dy="-2" text-anchor="middle" fill="red">37</text>
<text x="1756.11772950245" y="105.777154870357" font-size="20" dy="-2" text-anchor="middle" fill="red">38</text>
<text x="1742.63770147162" y="331.086194814296" font-size="20" dy="-2" text-anchor="middle" fill="red">39</text>
<polygon points="1614.5774351787,564.09810791871 1728.19481429573,569.875262789068 1740.7119831815,342.64050455501" fill="none" stroke="red"/>
<polygon points="1728.19481429573,569.875262789068 1814.85213735109,558.320953048353 1740.7119831815,342.64050455501" fill="none" stroke="red"/>
<polygon points="1814.85213735109,558.320953048353 1879.36370007008,537.138051857042 1740.7119831815,342.64050455501" fill="none" stroke="red"/>
<polygon points="1879.36370007008,537.138051857042 1938.09810791871,486.106517168886 1740.7119831815,342.64050455501" fill="none" stroke="red"/>
<polygon points="1938.09810791871,486.106517168886 1985.27820602663,396.560616678346 1740.7119831815,342.64050455501" fill="none" stroke="red"/>
<polygon points="1985.27820602663,396.560616678346 2011.27540294324,327.234758234057 1740.7119831815,342.64050455501" fill="none" stroke="red"/>
<polygon points="2011.27540294324,327.234758234057 2032.45830413455,263.686054660126 1740.7119831815,342.64050455501" fill="none" stroke="red"/>
<polygon points="2032.45830413455,263.686054660126 2048.82690960056,200.137351086195 1740.7119831815,342.64050455501" fill="none" stroke="red"/>
<polygon points="2048.82690960056,200.137351086195 2066.15837421163,111.554309740715 1740.7119831815,342.64050455501" fill="none" stroke="red"/>
<polygon points="2066.15837421163,111.554309740715 1756.11772950245,105.777154870357 1740.7119831815,342.64050455501" fill="none" stroke="red"/>
<polygon points="1714.71478626489,337.826208829712 1614.5774351787,564.09810791871 1740.7119831815,342.64050455501" fill="none" stroke="red"/>
<polygon points="362.860546601261,570.838121934127 414.854940434478,554.469516468115 1037.34337771549,105.777154870357" fill="none" stroke="red"/>
<polygon points="414.854940434478,554.469516468115 491.883672039243,524.620882971268 1037.34337771549,105.777154870357" fill="none" stroke="red"/>
<polygon points="491.883672039243,524.620882971268 562.172389628591,484.180798878766 1037.34337771549,105.777154870357" fill="none" stroke="red"/>
<polygon points="562.172389628591,484.180798878766 640.163980378416,463.960756832515 1037.34337771549,105.777154870357" fill="none" stroke="red"/>
<polygon points="640.163980378416,463.960756832515 780.741415557113,460.109320252277 1037.34337771549,105.777154870357" fill="none" stroke="red"/>
<polygon points="780.741415557113,460.109320252277 909.764540995094,459.146461107218 1037.34337771549,105.777154870357" fill="none" stroke="red"/>
<polygon points="909.764540995094,459.146461107218 976.201822004205,462.035038542396 1037.34337771549,105.777154870357" fill="none" stroke="red"/>
<polygon points="976.201822004205,462.035038542396 1073.45059565522,473.589348283111 1037.34337771549,105.777154870357" fill="none" stroke="red"/>
<polygon points="1073.45059565522,473.589348283111 1169.73651016118,487.069376313945 1037.34337771549,105.777154870357" fill="none" stroke="red"/>
<polygon points="1169.73651016118,487.069376313945 1292.9824807288,509.215136650315 1037.34337771549,105.777154870357" fill="none" stroke="red"/>
<polygon points="1292.9824807288,509.215136650315 1422.00560616678,529.435178696566 1037.34337771549,105.777154870357" fill="none" stroke="red"/>
<polygon points="1422.00560616678,529.435178696566 1531.77154870357,547.729502452698 1037.34337771549,105.777154870357" fill="none" stroke="red"/>
<polygon points="1531.77154870357,547.729502452698 1614.5774351787,564.09810791871 1037.34337771549,105.777154870357" fill="none" stroke="red"/>
<polygon points="1614.5774351787,564.09810791871 1714.71478626489,337.826208829712 1037.34337771549,105.777154870357" fill="none" stroke="red"/>
<polygon points="1714.71478626489,337.826208829712 1724.34337771549,105.777154870357 1037.34337771549,105.777154870357" fill="none" stroke="red"/>
<polygon points="1724.34337771549,105.777154870357 350.343377715487,105.777154870357 1037.34337771549,105.777154870357" fill="none" stroke="red"/>
<polygon points="350.343377715487,105.777154870357 354.194814295725,341.677645409951 1037.34337771549,105.777154870357" fill="none" stroke="red"/>
<polygon points="354.194814295725,341.677645409951 362.860546601261,570.838121934127 1037.34337771549,105.777154870357" fill="none" stroke="red"/>
<polygon points="318.569025928521,99.9999999999998 120.220042046251,104.814295725298 323.383321653819,342.64050455501" fill="none" stroke="red"/>
<polygon points="120.220042046251,104.814295725298 106.740014015417,217.468815697267 323.383321653819,342.64050455501" fill="none" stroke="red"/>
<polygon points="106.740014015417,217.468815697267 104.814295725298,264.648913805185 323.383321653819,342.64050455501" fill="none" stroke="red"/>
<polygon points="104.814295725298,264.648913805185 100,354.194814295725 323.383321653819,342.64050455501" fill="none" stroke="red"/>
<polygon points="100,354.194814295725 125.034337771549,443.740714786265 323.383321653819,342.64050455501" fill="none" stroke="red"/>
<polygon points="125.034337771549,443.740714786265 187.62018220042,519.80658724597 323.383321653819,342.64050455501" fill="none" stroke="red"/>
<polygon points="187.62018220042,519.80658724597 228.060266292922,543.87806587246 323.383321653819,342.64050455501" fill="none" stroke="red"/>
<polygon points="228.060266292922,543.87806587246 289.683251576734,567.949544498949 323.383321653819,342.64050455501" fill="none" stroke="red"/>
<polygon points="289.683251576734,567.949544498949 362.860546601261,570.838121934127 323.383321653819,342.64050455501" fill="none" stroke="red"/>
<polygon points="362.860546601261,570.838121934127 354.194814295725,341.677645409951 323.383321653819,342.64050455501" fill="none" stroke="red"/>
<rect x="0" y="0" width="100" height="100" stroke="green" fill='none'/>

</svg>
