<svg width="3172.30207332912" height="1417.88802561525" xmlns="http://www.w3.org/2000/svg">

<polygon points="
3072.30207332912,407.898154290709 
3008.47711946965,413.033839720682 
2929.01711550823,420.524351749299 
2828.52509843468,426.385623325568 
2730.21649655366,448.867144541872 
2661.29246940921,477.476207479874 
2580.41624111178,522.276159448406 
2497.31166453479,579.883705412101 
2387.22060871851,640.916151121385 
2303.38878180682,685.201868871556 
2202.93670525509,731.671001814249 
2095.50335832788,765.760237182874 
1993.04094217816,771.278685946903 
1887.19523099307,767.073281837524 
1789.74535033106,761.283570362839 
1720.78138266479,749.284771934417 
1622.90380558169,734.285441804686 
1551.96943883924,721.943820564024 
1476.10907440635,708.74514229276 
1385.68539720686,685.907484756944 
1281.89662289522,669.879686190491 
1201.96565361407,674.243188198718 
1112.95320818536,684.13179572461 
1016.48519868462,725.203965657127 
960.881335565282,776.431013260966 
902.663032455507,848.518662570805 
864.320131513643,923.049340464961 
847.82303181587,1000.36586975567 
842.763899052708,1064.44710863013 
837.278734056858,1095.97349384899 
783.349044476909,1096.74068470551 
777.349645262698,1131.22266853865 
828.280467329746,1136.02385209842 
808.27193008912,1198.51911941916 
778.497935264863,1247.13505540938 
734.846273298497,1282.17121398269 
672.519089007062,1307.86794720506 
625.099704482866,1317.88802561525 
545.89764972483,1312.22812083647 
472.350507180354,1297.40186630126 
430.1167337384,1271.78334993412 
390.582273895739,1236.4842495922 
354.474377987076,1204.82639348903 
314.597095332174,1171.49769222328 
250.302840341377,1150.16113263233 
184.637294101618,1136.70616934609 
127.710401197177,1119.69649961836 
106.465371968713,1101.78983233822 
451.930915402721,1117.23516496155 
446.364205174833,1090.89106244811 
100,1063.10910114934 
111.053539412146,1034.58158344338 
124.847997133809,1013.63610812852 
143.268898632311,989.435480285789 
182.808351040199,954.698875626088 
226.286937412036,943.993151591409 
265.653314225394,933.586981470338 
312.858018444837,930.634711232887 
352.480680273171,930.423359304953 
391.718914579042,914.919780087314 
419.692257544831,888.321056747305 
448.565926439855,850.713727082191 
472.899689355303,804.196332675638 
483.097835925257,757.249577659581 
485.672335393879,695.781114587156 
482.164226227844,634.269382616098 
462.292152436751,585.1358840307 
442.46334754429,529.919776810644 
429.659081925943,481.000958529999 
418.054696150439,425.185743482726 
415.188963710253,365.815821993968 
430.056822955679,309.531305815376 
456.061431033698,259.244524662586 
476.96696582674,232.431121017824 
512.222797270029,198.979269809821 
547.092537002445,173.580426312654 
579.477643440321,150.794358617515 
613.961291461864,133.448522831186 
650.458607458218,110.362901222438 
695.907592906235,100 
695.907592906235,700.893501379404 
727.605389531221,705.393466837165 
729.104823287671,101.715778249612 
814.346217781733,113.50156056169 
903.784695443129,136.167806691385 
936.296280200084,141.824383093356 
1012.28478714047,160.120470461188 
1105.75060075149,171.307144946049 
1179.16960078847,181.035990384683 
1253.57380036355,190.936247229438 
1312.38621873532,197.108722038178 
1375.6536694778,201.01124385713 
1433.78044222508,211.124516818229 
1498.33264641926,219.31065960178 
1555.21793461348,219.057702963622 
1617.671597224,221.803613838365 
1687.19306800726,224.76420501786 
1752.13136391231,224.897340090575 
1803.27686628411,222.630715477606 
1843.58517373693,218.478565397313 
1873.44237798163,204.38788213886 
1909.85315618072,193.467477799428 
1946.77816859817,179.591474845728 
1982.37515866529,167.514459562086 
2019.94254780859,155.780267090685 
2045.60100469755,154.154355015155 
2101.6725047598,152.744787432787 
2097.15922579477,371.2044640621 
2134.16911182108,368.508478839625 
2138.55424827862,144.951393113745 
2187.64281377698,154.50716295785 
2234.03206567604,173.74351677673 
2273.60979441734,202.960008483994 
2326.7223674885,247.726676684346 
2353.23455303124,287.865236919451 
2365.43804663396,351.90487108368 
2355.96715039871,412.173454313263 
2333.13282123972,455.906661511667 
2321.05081339085,490.345376446169 
2339.76960461455,493.602193162455 
2383.29145988502,476.813860493118 
2431.95399315069,453.814776681636 
2477.31810498985,432.271857727972 
2519.04097259026,414.155502708305 
2565.04746115527,394.75439423694 
2619.70606525833,383.963796593405 
2665.02690819886,368.503486274398 
2732.19355238348,355.829027351949 
2795.84709483683,351.678541460065 
2858.47216885347,353.439252796718 
2911.71621280894,356.612860092557 
2962.73190848484,372.594061383561 
3014.30510727774,379.537055425638 
3061.03718198904,396.803010168339 
" fill="none" stroke="black"/>
<text x="3072.30207332912" y="407.898154290709" font-size="20" dy="-2" text-anchor="middle" fill="red">0</text>
<text x="3008.47711946965" y="413.033839720682" font-size="20" dy="-2" text-anchor="middle" fill="red">1</text>
<text x="2929.01711550823" y="420.524351749299" font-size="20" dy="-2" text-anchor="middle" fill="red">2</text>
<text x="2828.52509843468" y="426.385623325568" font-size="20" dy="-2" text-anchor="middle" fill="red">3</text>
<text x="2730.21649655366" y="448.867144541872" font-size="20" dy="-2" text-anchor="middle" fill="red">4</text>
<text x="2661.29246940921" y="477.476207479874" font-size="20" dy="-2" text-anchor="middle" fill="red">5</text>
<text x="2580.41624111178" y="522.276159448406" font-size="20" dy="-2" text-anchor="middle" fill="red">6</text>
<text x="2497.31166453479" y="579.883705412101" font-size="20" dy="-2" text-anchor="middle" fill="red">7</text>
<text x="2387.22060871851" y="640.916151121385" font-size="20" dy="-2" text-anchor="middle" fill="red">8</text>
<text x="2303.38878180682" y="685.201868871556" font-size="20" dy="-2" text-anchor="middle" fill="red">9</text>
<text x="2202.93670525509" y="731.671001814249" font-size="20" dy="-2" text-anchor="middle" fill="red">10</text>
<text x="2095.50335832788" y="765.760237182874" font-size="20" dy="-2" text-anchor="middle" fill="red">11</text>
<text x="1993.04094217816" y="771.278685946903" font-size="20" dy="-2" text-anchor="middle" fill="red">12</text>
<text x="1887.19523099307" y="767.073281837524" font-size="20" dy="-2" text-anchor="middle" fill="red">13</text>
<text x="1789.74535033106" y="761.283570362839" font-size="20" dy="-2" text-anchor="middle" fill="red">14</text>
<text x="1720.78138266479" y="749.284771934417" font-size="20" dy="-2" text-anchor="middle" fill="red">15</text>
<text x="1622.90380558169" y="734.285441804686" font-size="20" dy="-2" text-anchor="middle" fill="red">16</text>
<text x="1551.96943883924" y="721.943820564024" font-size="20" dy="-2" text-anchor="middle" fill="red">17</text>
<text x="1476.10907440635" y="708.74514229276" font-size="20" dy="-2" text-anchor="middle" fill="red">18</text>
<text x="1385.68539720686" y="685.907484756944" font-size="20" dy="-2" text-anchor="middle" fill="red">19</text>
<text x="1281.89662289522" y="669.879686190491" font-size="20" dy="-2" text-anchor="middle" fill="red">20</text>
<text x="1201.96565361407" y="674.243188198718" font-size="20" dy="-2" text-anchor="middle" fill="red">21</text>
<text x="1112.95320818536" y="684.13179572461" font-size="20" dy="-2" text-anchor="middle" fill="red">22</text>
<text x="1016.48519868462" y="725.203965657127" font-size="20" dy="-2" text-anchor="middle" fill="red">23</text>
<text x="960.881335565282" y="776.431013260966" font-size="20" dy="-2" text-anchor="middle" fill="red">24</text>
<text x="902.663032455507" y="848.518662570805" font-size="20" dy="-2" text-anchor="middle" fill="red">25</text>
<text x="864.320131513643" y="923.049340464961" font-size="20" dy="-2" text-anchor="middle" fill="red">26</text>
<text x="847.82303181587" y="1000.36586975567" font-size="20" dy="-2" text-anchor="middle" fill="red">27</text>
<text x="842.763899052708" y="1064.44710863013" font-size="20" dy="-2" text-anchor="middle" fill="red">28</text>
<text x="837.278734056858" y="1095.97349384899" font-size="20" dy="-2" text-anchor="middle" fill="red">29</text>
<text x="783.349044476909" y="1096.74068470551" font-size="20" dy="-2" text-anchor="middle" fill="red">30</text>
<text x="777.349645262698" y="1131.22266853865" font-size="20" dy="-2" text-anchor="middle" fill="red">31</text>
<text x="828.280467329746" y="1136.02385209842" font-size="20" dy="-2" text-anchor="middle" fill="red">32</text>
<text x="808.27193008912" y="1198.51911941916" font-size="20" dy="-2" text-anchor="middle" fill="red">33</text>
<text x="778.497935264863" y="1247.13505540938" font-size="20" dy="-2" text-anchor="middle" fill="red">34</text>
<text x="734.846273298497" y="1282.17121398269" font-size="20" dy="-2" text-anchor="middle" fill="red">35</text>
<text x="672.519089007062" y="1307.86794720506" font-size="20" dy="-2" text-anchor="middle" fill="red">36</text>
<text x="625.099704482866" y="1317.88802561525" font-size="20" dy="-2" text-anchor="middle" fill="red">37</text>
<text x="545.89764972483" y="1312.22812083647" font-size="20" dy="-2" text-anchor="middle" fill="red">38</text>
<text x="472.350507180354" y="1297.40186630126" font-size="20" dy="-2" text-anchor="middle" fill="red">39</text>
<text x="430.1167337384" y="1271.78334993412" font-size="20" dy="-2" text-anchor="middle" fill="red">40</text>
<text x="390.582273895739" y="1236.4842495922" font-size="20" dy="-2" text-anchor="middle" fill="red">41</text>
<text x="354.474377987076" y="1204.82639348903" font-size="20" dy="-2" text-anchor="middle" fill="red">42</text>
<text x="314.597095332174" y="1171.49769222328" font-size="20" dy="-2" text-anchor="middle" fill="red">43</text>
<text x="250.302840341377" y="1150.16113263233" font-size="20" dy="-2" text-anchor="middle" fill="red">44</text>
<text x="184.637294101618" y="1136.70616934609" font-size="20" dy="-2" text-anchor="middle" fill="red">45</text>
<text x="127.710401197177" y="1119.69649961836" font-size="20" dy="-2" text-anchor="middle" fill="red">46</text>
<text x="106.465371968713" y="1101.78983233822" font-size="20" dy="-2" text-anchor="middle" fill="red">47</text>
<text x="451.930915402721" y="1117.23516496155" font-size="20" dy="-2" text-anchor="middle" fill="red">48</text>
<text x="446.364205174833" y="1090.89106244811" font-size="20" dy="-2" text-anchor="middle" fill="red">49</text>
<text x="100" y="1063.10910114934" font-size="20" dy="-2" text-anchor="middle" fill="red">50</text>
<text x="111.053539412146" y="1034.58158344338" font-size="20" dy="-2" text-anchor="middle" fill="red">51</text>
<text x="124.847997133809" y="1013.63610812852" font-size="20" dy="-2" text-anchor="middle" fill="red">52</text>
<text x="143.268898632311" y="989.435480285789" font-size="20" dy="-2" text-anchor="middle" fill="red">53</text>
<text x="182.808351040199" y="954.698875626088" font-size="20" dy="-2" text-anchor="middle" fill="red">54</text>
<text x="226.286937412036" y="943.993151591409" font-size="20" dy="-2" text-anchor="middle" fill="red">55</text>
<text x="265.653314225394" y="933.586981470338" font-size="20" dy="-2" text-anchor="middle" fill="red">56</text>
<text x="312.858018444837" y="930.634711232887" font-size="20" dy="-2" text-anchor="middle" fill="red">57</text>
<text x="352.480680273171" y="930.423359304953" font-size="20" dy="-2" text-anchor="middle" fill="red">58</text>
<text x="391.718914579042" y="914.919780087314" font-size="20" dy="-2" text-anchor="middle" fill="red">59</text>
<text x="419.692257544831" y="888.321056747305" font-size="20" dy="-2" text-anchor="middle" fill="red">60</text>
<text x="448.565926439855" y="850.713727082191" font-size="20" dy="-2" text-anchor="middle" fill="red">61</text>
<text x="472.899689355303" y="804.196332675638" font-size="20" dy="-2" text-anchor="middle" fill="red">62</text>
<text x="483.097835925257" y="757.249577659581" font-size="20" dy="-2" text-anchor="middle" fill="red">63</text>
<text x="485.672335393879" y="695.781114587156" font-size="20" dy="-2" text-anchor="middle" fill="red">64</text>
<text x="482.164226227844" y="634.269382616098" font-size="20" dy="-2" text-anchor="middle" fill="red">65</text>
<text x="462.292152436751" y="585.1358840307" font-size="20" dy="-2" text-anchor="middle" fill="red">66</text>
<text x="442.46334754429" y="529.919776810644" font-size="20" dy="-2" text-anchor="middle" fill="red">67</text>
<text x="429.659081925943" y="481.000958529999" font-size="20" dy="-2" text-anchor="middle" fill="red">68</text>
<text x="418.054696150439" y="425.185743482726" font-size="20" dy="-2" text-anchor="middle" fill="red">69</text>
<text x="415.188963710253" y="365.815821993968" font-size="20" dy="-2" text-anchor="middle" fill="red">70</text>
<text x="430.056822955679" y="309.531305815376" font-size="20" dy="-2" text-anchor="middle" fill="red">71</text>
<text x="456.061431033698" y="259.244524662586" font-size="20" dy="-2" text-anchor="middle" fill="red">72</text>
<text x="476.96696582674" y="232.431121017824" font-size="20" dy="-2" text-anchor="middle" fill="red">73</text>
<text x="512.222797270029" y="198.979269809821" font-size="20" dy="-2" text-anchor="middle" fill="red">74</text>
<text x="547.092537002445" y="173.580426312654" font-size="20" dy="-2" text-anchor="middle" fill="red">75</text>
<text x="579.477643440321" y="150.794358617515" font-size="20" dy="-2" text-anchor="middle" fill="red">76</text>
<text x="613.961291461864" y="133.448522831186" font-size="20" dy="-2" text-anchor="middle" fill="red">77</text>
<text x="650.458607458218" y="110.362901222438" font-size="20" dy="-2" text-anchor="middle" fill="red">78</text>
<text x="695.907592906235" y="100" font-size="20" dy="-2" text-anchor="middle" fill="red">79</text>
<text x="695.907592906235" y="700.893501379404" font-size="20" dy="-2" text-anchor="middle" fill="red">80</text>
<text x="727.605389531221" y="705.393466837165" font-size="20" dy="-2" text-anchor="middle" fill="red">81</text>
<text x="729.104823287671" y="101.715778249612" font-size="20" dy="-2" text-anchor="middle" fill="red">82</text>
<text x="814.346217781733" y="113.50156056169" font-size="20" dy="-2" text-anchor="middle" fill="red">83</text>
<text x="903.784695443129" y="136.167806691385" font-size="20" dy="-2" text-anchor="middle" fill="red">84</text>
<text x="936.296280200084" y="141.824383093356" font-size="20" dy="-2" text-anchor="middle" fill="red">85</text>
<text x="1012.28478714047" y="160.120470461188" font-size="20" dy="-2" text-anchor="middle" fill="red">86</text>
<text x="1105.75060075149" y="171.307144946049" font-size="20" dy="-2" text-anchor="middle" fill="red">87</text>
<text x="1179.16960078847" y="181.035990384683" font-size="20" dy="-2" text-anchor="middle" fill="red">88</text>
<text x="1253.57380036355" y="190.936247229438" font-size="20" dy="-2" text-anchor="middle" fill="red">89</text>
<text x="1312.38621873532" y="197.108722038178" font-size="20" dy="-2" text-anchor="middle" fill="red">90</text>
<text x="1375.6536694778" y="201.01124385713" font-size="20" dy="-2" text-anchor="middle" fill="red">91</text>
<text x="1433.78044222508" y="211.124516818229" font-size="20" dy="-2" text-anchor="middle" fill="red">92</text>
<text x="1498.33264641926" y="219.31065960178" font-size="20" dy="-2" text-anchor="middle" fill="red">93</text>
<text x="1555.21793461348" y="219.057702963622" font-size="20" dy="-2" text-anchor="middle" fill="red">94</text>
<text x="1617.671597224" y="221.803613838365" font-size="20" dy="-2" text-anchor="middle" fill="red">95</text>
<text x="1687.19306800726" y="224.76420501786" font-size="20" dy="-2" text-anchor="middle" fill="red">96</text>
<text x="1752.13136391231" y="224.897340090575" font-size="20" dy="-2" text-anchor="middle" fill="red">97</text>
<text x="1803.27686628411" y="222.630715477606" font-size="20" dy="-2" text-anchor="middle" fill="red">98</text>
<text x="1843.58517373693" y="218.478565397313" font-size="20" dy="-2" text-anchor="middle" fill="red">99</text>
<text x="1873.44237798163" y="204.38788213886" font-size="20" dy="-2" text-anchor="middle" fill="red">100</text>
<text x="1909.85315618072" y="193.467477799428" font-size="20" dy="-2" text-anchor="middle" fill="red">101</text>
<text x="1946.77816859817" y="179.591474845728" font-size="20" dy="-2" text-anchor="middle" fill="red">102</text>
<text x="1982.37515866529" y="167.514459562086" font-size="20" dy="-2" text-anchor="middle" fill="red">103</text>
<text x="2019.94254780859" y="155.780267090685" font-size="20" dy="-2" text-anchor="middle" fill="red">104</text>
<text x="2045.60100469755" y="154.154355015155" font-size="20" dy="-2" text-anchor="middle" fill="red">105</text>
<text x="2101.6725047598" y="152.744787432787" font-size="20" dy="-2" text-anchor="middle" fill="red">106</text>
<text x="2097.15922579477" y="371.2044640621" font-size="20" dy="-2" text-anchor="middle" fill="red">107</text>
<text x="2134.16911182108" y="368.508478839625" font-size="20" dy="-2" text-anchor="middle" fill="red">108</text>
<text x="2138.55424827862" y="144.951393113745" font-size="20" dy="-2" text-anchor="middle" fill="red">109</text>
<text x="2187.64281377698" y="154.50716295785" font-size="20" dy="-2" text-anchor="middle" fill="red">110</text>
<text x="2234.03206567604" y="173.74351677673" font-size="20" dy="-2" text-anchor="middle" fill="red">111</text>
<text x="2273.60979441734" y="202.960008483994" font-size="20" dy="-2" text-anchor="middle" fill="red">112</text>
<text x="2326.7223674885" y="247.726676684346" font-size="20" dy="-2" text-anchor="middle" fill="red">113</text>
<text x="2353.23455303124" y="287.865236919451" font-size="20" dy="-2" text-anchor="middle" fill="red">114</text>
<text x="2365.43804663396" y="351.90487108368" font-size="20" dy="-2" text-anchor="middle" fill="red">115</text>
<text x="2355.96715039871" y="412.173454313263" font-size="20" dy="-2" text-anchor="middle" fill="red">116</text>
<text x="2333.13282123972" y="455.906661511667" font-size="20" dy="-2" text-anchor="middle" fill="red">117</text>
<text x="2321.05081339085" y="490.345376446169" font-size="20" dy="-2" text-anchor="middle" fill="red">118</text>
<text x="2339.76960461455" y="493.602193162455" font-size="20" dy="-2" text-anchor="middle" fill="red">119</text>
<text x="2383.29145988502" y="476.813860493118" font-size="20" dy="-2" text-anchor="middle" fill="red">120</text>
<text x="2431.95399315069" y="453.814776681636" font-size="20" dy="-2" text-anchor="middle" fill="red">121</text>
<text x="2477.31810498985" y="432.271857727972" font-size="20" dy="-2" text-anchor="middle" fill="red">122</text>
<text x="2519.04097259026" y="414.155502708305" font-size="20" dy="-2" text-anchor="middle" fill="red">123</text>
<text x="2565.04746115527" y="394.75439423694" font-size="20" dy="-2" text-anchor="middle" fill="red">124</text>
<text x="2619.70606525833" y="383.963796593405" font-size="20" dy="-2" text-anchor="middle" fill="red">125</text>
<text x="2665.02690819886" y="368.503486274398" font-size="20" dy="-2" text-anchor="middle" fill="red">126</text>
<text x="2732.19355238348" y="355.829027351949" font-size="20" dy="-2" text-anchor="middle" fill="red">127</text>
<text x="2795.84709483683" y="351.678541460065" font-size="20" dy="-2" text-anchor="middle" fill="red">128</text>
<text x="2858.47216885347" y="353.439252796718" font-size="20" dy="-2" text-anchor="middle" fill="red">129</text>
<text x="2911.71621280894" y="356.612860092557" font-size="20" dy="-2" text-anchor="middle" fill="red">130</text>
<text x="2962.73190848484" y="372.594061383561" font-size="20" dy="-2" text-anchor="middle" fill="red">131</text>
<text x="3014.30510727774" y="379.537055425638" font-size="20" dy="-2" text-anchor="middle" fill="red">132</text>
<text x="3061.03718198904" y="396.803010168339" font-size="20" dy="-2" text-anchor="middle" fill="red">133</text>
<polygon points="2387.22060871851,640.916151121385 2303.38878180682,685.201868871556 1562.74089831607,444.179125793902" fill="none" stroke="red"/>
<polygon points="2303.38878180682,685.201868871556 2202.93670525509,731.671001814249 1562.74089831607,444.179125793902" fill="none" stroke="red"/>
<polygon points="2202.93670525509,731.671001814249 2095.50335832788,765.760237182874 1562.74089831607,444.179125793902" fill="none" stroke="red"/>
<polygon points="2095.50335832788,765.760237182874 1993.04094217816,771.278685946903 1562.74089831607,444.179125793902" fill="none" stroke="red"/>
<polygon points="1993.04094217816,771.278685946903 1887.19523099307,767.073281837524 1562.74089831607,444.179125793902" fill="none" stroke="red"/>
<polygon points="1887.19523099307,767.073281837524 1789.74535033106,761.283570362839 1562.74089831607,444.179125793902" fill="none" stroke="red"/>
<polygon points="1789.74535033106,761.283570362839 1720.78138266479,749.284771934417 1562.74089831607,444.179125793902" fill="none" stroke="red"/>
<polygon points="1720.78138266479,749.284771934417 1622.90380558169,734.285441804686 1562.74089831607,444.179125793902" fill="none" stroke="red"/>
<polygon points="1622.90380558169,734.285441804686 1551.96943883924,721.943820564024 1562.74089831607,444.179125793902" fill="none" stroke="red"/>
<polygon points="1551.96943883924,721.943820564024 1476.10907440635,708.74514229276 1562.74089831607,444.179125793902" fill="none" stroke="red"/>
<polygon points="1476.10907440635,708.74514229276 1385.68539720686,685.907484756944 1562.74089831607,444.179125793902" fill="none" stroke="red"/>
<polygon points="1385.68539720686,685.907484756944 1281.89662289522,669.879686190491 1562.74089831607,444.179125793902" fill="none" stroke="red"/>
<polygon points="1281.89662289522,669.879686190491 1201.96565361407,674.243188198718 1562.74089831607,444.179125793902" fill="none" stroke="red"/>
<polygon points="1201.96565361407,674.243188198718 1112.95320818536,684.13179572461 1562.74089831607,444.179125793902" fill="none" stroke="red"/>
<polygon points="1112.95320818536,684.13179572461 1016.48519868462,725.203965657127 1562.74089831607,444.179125793902" fill="none" stroke="red"/>
<polygon points="727.605389531221,705.393466837165 729.104823287671,101.715778249612 1562.74089831607,444.179125793902" fill="none" stroke="red"/>
<polygon points="729.104823287671,101.715778249612 814.346217781733,113.50156056169 1562.74089831607,444.179125793902" fill="none" stroke="red"/>
<polygon points="814.346217781733,113.50156056169 903.784695443129,136.167806691385 1562.74089831607,444.179125793902" fill="none" stroke="red"/>
<polygon points="903.784695443129,136.167806691385 936.296280200084,141.824383093356 1562.74089831607,444.179125793902" fill="none" stroke="red"/>
<polygon points="936.296280200084,141.824383093356 1012.28478714047,160.120470461188 1562.74089831607,444.179125793902" fill="none" stroke="red"/>
<polygon points="1012.28478714047,160.120470461188 1105.75060075149,171.307144946049 1562.74089831607,444.179125793902" fill="none" stroke="red"/>
<polygon points="1105.75060075149,171.307144946049 1179.16960078847,181.035990384683 1562.74089831607,444.179125793902" fill="none" stroke="red"/>
<polygon points="1179.16960078847,181.035990384683 1253.57380036355,190.936247229438 1562.74089831607,444.179125793902" fill="none" stroke="red"/>
<polygon points="1253.57380036355,190.936247229438 1312.38621873532,197.108722038178 1562.74089831607,444.179125793902" fill="none" stroke="red"/>
<polygon points="1312.38621873532,197.108722038178 1375.6536694778,201.01124385713 1562.74089831607,444.179125793902" fill="none" stroke="red"/>
<polygon points="1375.6536694778,201.01124385713 1433.78044222508,211.124516818229 1562.74089831607,444.179125793902" fill="none" stroke="red"/>
<polygon points="1433.78044222508,211.124516818229 1498.33264641926,219.31065960178 1562.74089831607,444.179125793902" fill="none" stroke="red"/>
<polygon points="1498.33264641926,219.31065960178 1555.21793461348,219.057702963622 1562.74089831607,444.179125793902" fill="none" stroke="red"/>
<polygon points="1555.21793461348,219.057702963622 1617.671597224,221.803613838365 1562.74089831607,444.179125793902" fill="none" stroke="red"/>
<polygon points="1617.671597224,221.803613838365 1687.19306800726,224.76420501786 1562.74089831607,444.179125793902" fill="none" stroke="red"/>
<polygon points="1687.19306800726,224.76420501786 1752.13136391231,224.897340090575 1562.74089831607,444.179125793902" fill="none" stroke="red"/>
<polygon points="1752.13136391231,224.897340090575 1803.27686628411,222.630715477606 1562.74089831607,444.179125793902" fill="none" stroke="red"/>
<polygon points="1803.27686628411,222.630715477606 1843.58517373693,218.478565397313 1562.74089831607,444.179125793902" fill="none" stroke="red"/>
<polygon points="1843.58517373693,218.478565397313 1873.44237798163,204.38788213886 1562.74089831607,444.179125793902" fill="none" stroke="red"/>
<polygon points="1873.44237798163,204.38788213886 1909.85315618072,193.467477799428 1562.74089831607,444.179125793902" fill="none" stroke="red"/>
<polygon points="1909.85315618072,193.467477799428 1946.77816859817,179.591474845728 1562.74089831607,444.179125793902" fill="none" stroke="red"/>
<polygon points="1946.77816859817,179.591474845728 1982.37515866529,167.514459562086 1562.74089831607,444.179125793902" fill="none" stroke="red"/>
<polygon points="1982.37515866529,167.514459562086 2019.94254780859,155.780267090685 1562.74089831607,444.179125793902" fill="none" stroke="red"/>
<polygon points="2019.94254780859,155.780267090685 2045.60100469755,154.154355015155 1562.74089831607,444.179125793902" fill="none" stroke="red"/>
<polygon points="2045.60100469755,154.154355015155 2101.6725047598,152.744787432787 1562.74089831607,444.179125793902" fill="none" stroke="red"/>
<polygon points="2101.6725047598,152.744787432787 2097.15922579477,371.2044640621 1562.74089831607,444.179125793902" fill="none" stroke="red"/>
<polygon points="1016.48519868462,725.203965657127 727.605389531221,705.393466837165 1562.74089831607,444.179125793902" fill="none" stroke="red"/>
<polygon points="2097.15922579477,371.2044640621 2387.22060871851,640.916151121385 1562.74089831607,444.179125793902" fill="none" stroke="red"/>
<polygon points="2138.55424827862,144.951393113745 2187.64281377698,154.50716295785 2134.16911182108,368.508478839625" fill="none" stroke="red"/>
<polygon points="2187.64281377698,154.50716295785 2234.03206567604,173.74351677673 2134.16911182108,368.508478839625" fill="none" stroke="red"/>
<polygon points="2234.03206567604,173.74351677673 2273.60979441734,202.960008483994 2134.16911182108,368.508478839625" fill="none" stroke="red"/>
<polygon points="2273.60979441734,202.960008483994 2326.7223674885,247.726676684346 2134.16911182108,368.508478839625" fill="none" stroke="red"/>
<polygon points="2326.7223674885,247.726676684346 2353.23455303124,287.865236919451 2134.16911182108,368.508478839625" fill="none" stroke="red"/>
<polygon points="2353.23455303124,287.865236919451 2365.43804663396,351.90487108368 2134.16911182108,368.508478839625" fill="none" stroke="red"/>
<polygon points="2365.43804663396,351.90487108368 2355.96715039871,412.173454313263 2134.16911182108,368.508478839625" fill="none" stroke="red"/>
<polygon points="2355.96715039871,412.173454313263 2333.13282123972,455.906661511667 2134.16911182108,368.508478839625" fill="none" stroke="red"/>
<polygon points="2333.13282123972,455.906661511667 2321.05081339085,490.345376446169 2134.16911182108,368.508478839625" fill="none" stroke="red"/>
<polygon points="2387.22060871851,640.916151121385 2097.15922579477,371.2044640621 2134.16911182108,368.508478839625" fill="none" stroke="red"/>
<polygon points="2321.05081339085,490.345376446169 2387.22060871851,640.916151121385 2134.16911182108,368.508478839625" fill="none" stroke="red"/>
<polygon points="3072.30207332912,407.898154290709 3008.47711946965,413.033839720682 2697.62170237626,408.685315408135" fill="none" stroke="red"/>
<polygon points="3008.47711946965,413.033839720682 2929.01711550823,420.524351749299 2697.62170237626,408.685315408135" fill="none" stroke="red"/>
<polygon points="2929.01711550823,420.524351749299 2828.52509843468,426.385623325568 2697.62170237626,408.685315408135" fill="none" stroke="red"/>
<polygon points="2828.52509843468,426.385623325568 2730.21649655366,448.867144541872 2697.62170237626,408.685315408135" fill="none" stroke="red"/>
<polygon points="2730.21649655366,448.867144541872 2661.29246940921,477.476207479874 2697.62170237626,408.685315408135" fill="none" stroke="red"/>
<polygon points="2661.29246940921,477.476207479874 2580.41624111178,522.276159448406 2697.62170237626,408.685315408135" fill="none" stroke="red"/>
<polygon points="2580.41624111178,522.276159448406 2497.31166453479,579.883705412101 2697.62170237626,408.685315408135" fill="none" stroke="red"/>
<polygon points="2497.31166453479,579.883705412101 2387.22060871851,640.916151121385 2697.62170237626,408.685315408135" fill="none" stroke="red"/>
<polygon points="2387.22060871851,640.916151121385 2321.05081339085,490.345376446169 2697.62170237626,408.685315408135" fill="none" stroke="red"/>
<polygon points="2321.05081339085,490.345376446169 2339.76960461455,493.602193162455 2697.62170237626,408.685315408135" fill="none" stroke="red"/>
<polygon points="2339.76960461455,493.602193162455 2383.29145988502,476.813860493118 2697.62170237626,408.685315408135" fill="none" stroke="red"/>
<polygon points="2383.29145988502,476.813860493118 2431.95399315069,453.814776681636 2697.62170237626,408.685315408135" fill="none" stroke="red"/>
<polygon points="2431.95399315069,453.814776681636 2477.31810498985,432.271857727972 2697.62170237626,408.685315408135" fill="none" stroke="red"/>
<polygon points="2477.31810498985,432.271857727972 2519.04097259026,414.155502708305 2697.62170237626,408.685315408135" fill="none" stroke="red"/>
<polygon points="2519.04097259026,414.155502708305 2565.04746115527,394.75439423694 2697.62170237626,408.685315408135" fill="none" stroke="red"/>
<polygon points="2565.04746115527,394.75439423694 2619.70606525833,383.963796593405 2697.62170237626,408.685315408135" fill="none" stroke="red"/>
<polygon points="2619.70606525833,383.963796593405 2665.02690819886,368.503486274398 2697.62170237626,408.685315408135" fill="none" stroke="red"/>
<polygon points="2665.02690819886,368.503486274398 2732.19355238348,355.829027351949 2697.62170237626,408.685315408135" fill="none" stroke="red"/>
<polygon points="2732.19355238348,355.829027351949 2795.84709483683,351.678541460065 2697.62170237626,408.685315408135" fill="none" stroke="red"/>
<polygon points="2795.84709483683,351.678541460065 2858.47216885347,353.439252796718 2697.62170237626,408.685315408135" fill="none" stroke="red"/>
<polygon points="2858.47216885347,353.439252796718 2911.71621280894,356.612860092557 2697.62170237626,408.685315408135" fill="none" stroke="red"/>
<polygon points="2911.71621280894,356.612860092557 2962.73190848484,372.594061383561 2697.62170237626,408.685315408135" fill="none" stroke="red"/>
<polygon points="2962.73190848484,372.594061383561 3014.30510727774,379.537055425638 2697.62170237626,408.685315408135" fill="none" stroke="red"/>
<polygon points="3014.30510727774,379.537055425638 3061.03718198904,396.803010168339 2697.62170237626,408.685315408135" fill="none" stroke="red"/>
<polygon points="1016.48519868462,725.203965657127 960.881335565282,776.431013260966 619.770973197456,957.642824921494" fill="none" stroke="red"/>
<polygon points="960.881335565282,776.431013260966 902.663032455507,848.518662570805 619.770973197456,957.642824921494" fill="none" stroke="red"/>
<polygon points="902.663032455507,848.518662570805 864.320131513643,923.049340464961 619.770973197456,957.642824921494" fill="none" stroke="red"/>
<polygon points="864.320131513643,923.049340464961 847.82303181587,1000.36586975567 619.770973197456,957.642824921494" fill="none" stroke="red"/>
<polygon points="847.82303181587,1000.36586975567 842.763899052708,1064.44710863013 619.770973197456,957.642824921494" fill="none" stroke="red"/>
<polygon points="842.763899052708,1064.44710863013 837.278734056858,1095.97349384899 619.770973197456,957.642824921494" fill="none" stroke="red"/>
<polygon points="837.278734056858,1095.97349384899 783.349044476909,1096.74068470551 619.770973197456,957.642824921494" fill="none" stroke="red"/>
<polygon points="783.349044476909,1096.74068470551 777.349645262698,1131.22266853865 619.770973197456,957.642824921494" fill="none" stroke="red"/>
<polygon points="727.605389531221,705.393466837165 1016.48519868462,725.203965657127 619.770973197456,957.642824921494" fill="none" stroke="red"/>
<polygon points="451.930915402721,1117.23516496155 446.364205174833,1090.89106244811 619.770973197456,957.642824921494" fill="none" stroke="red"/>
<polygon points="446.364205174833,1090.89106244811 100,1063.10910114934 619.770973197456,957.642824921494" fill="none" stroke="red"/>
<polygon points="100,1063.10910114934 111.053539412146,1034.58158344338 619.770973197456,957.642824921494" fill="none" stroke="red"/>
<polygon points="111.053539412146,1034.58158344338 124.847997133809,1013.63610812852 619.770973197456,957.642824921494" fill="none" stroke="red"/>
<polygon points="124.847997133809,1013.63610812852 143.268898632311,989.435480285789 619.770973197456,957.642824921494" fill="none" stroke="red"/>
<polygon points="143.268898632311,989.435480285789 182.808351040199,954.698875626088 619.770973197456,957.642824921494" fill="none" stroke="red"/>
<polygon points="182.808351040199,954.698875626088 226.286937412036,943.993151591409 619.770973197456,957.642824921494" fill="none" stroke="red"/>
<polygon points="226.286937412036,943.993151591409 265.653314225394,933.586981470338 619.770973197456,957.642824921494" fill="none" stroke="red"/>
<polygon points="265.653314225394,933.586981470338 312.858018444837,930.634711232887 619.770973197456,957.642824921494" fill="none" stroke="red"/>
<polygon points="312.858018444837,930.634711232887 352.480680273171,930.423359304953 619.770973197456,957.642824921494" fill="none" stroke="red"/>
<polygon points="352.480680273171,930.423359304953 391.718914579042,914.919780087314 619.770973197456,957.642824921494" fill="none" stroke="red"/>
<polygon points="391.718914579042,914.919780087314 419.692257544831,888.321056747305 619.770973197456,957.642824921494" fill="none" stroke="red"/>
<polygon points="419.692257544831,888.321056747305 448.565926439855,850.713727082191 619.770973197456,957.642824921494" fill="none" stroke="red"/>
<polygon points="448.565926439855,850.713727082191 472.899689355303,804.196332675638 619.770973197456,957.642824921494" fill="none" stroke="red"/>
<polygon points="472.899689355303,804.196332675638 483.097835925257,757.249577659581 619.770973197456,957.642824921494" fill="none" stroke="red"/>
<polygon points="483.097835925257,757.249577659581 485.672335393879,695.781114587156 619.770973197456,957.642824921494" fill="none" stroke="red"/>
<polygon points="485.672335393879,695.781114587156 482.164226227844,634.269382616098 619.770973197456,957.642824921494" fill="none" stroke="red"/>
<polygon points="482.164226227844,634.269382616098 462.292152436751,585.1358840307 619.770973197456,957.642824921494" fill="none" stroke="red"/>
<polygon points="462.292152436751,585.1358840307 442.46334754429,529.919776810644 619.770973197456,957.642824921494" fill="none" stroke="red"/>
<polygon points="442.46334754429,529.919776810644 429.659081925943,481.000958529999 619.770973197456,957.642824921494" fill="none" stroke="red"/>
<polygon points="429.659081925943,481.000958529999 418.054696150439,425.185743482726 619.770973197456,957.642824921494" fill="none" stroke="red"/>
<polygon points="418.054696150439,425.185743482726 415.188963710253,365.815821993968 619.770973197456,957.642824921494" fill="none" stroke="red"/>
<polygon points="415.188963710253,365.815821993968 430.056822955679,309.531305815376 619.770973197456,957.642824921494" fill="none" stroke="red"/>
<polygon points="430.056822955679,309.531305815376 456.061431033698,259.244524662586 619.770973197456,957.642824921494" fill="none" stroke="red"/>
<polygon points="456.061431033698,259.244524662586 476.96696582674,232.431121017824 619.770973197456,957.642824921494" fill="none" stroke="red"/>
<polygon points="476.96696582674,232.431121017824 512.222797270029,198.979269809821 619.770973197456,957.642824921494" fill="none" stroke="red"/>
<polygon points="512.222797270029,198.979269809821 547.092537002445,173.580426312654 619.770973197456,957.642824921494" fill="none" stroke="red"/>
<polygon points="547.092537002445,173.580426312654 579.477643440321,150.794358617515 619.770973197456,957.642824921494" fill="none" stroke="red"/>
<polygon points="579.477643440321,150.794358617515 613.961291461864,133.448522831186 619.770973197456,957.642824921494" fill="none" stroke="red"/>
<polygon points="613.961291461864,133.448522831186 650.458607458218,110.362901222438 619.770973197456,957.642824921494" fill="none" stroke="red"/>
<polygon points="650.458607458218,110.362901222438 695.907592906235,100 619.770973197456,957.642824921494" fill="none" stroke="red"/>
<polygon points="695.907592906235,100 695.907592906235,700.893501379404 619.770973197456,957.642824921494" fill="none" stroke="red"/>
<polygon points="695.907592906235,700.893501379404 727.605389531221,705.393466837165 619.770973197456,957.642824921494" fill="none" stroke="red"/>
<polygon points="808.27193008912,1198.51911941916 778.497935264863,1247.13505540938 619.770973197456,957.642824921494" fill="none" stroke="red"/>
<polygon points="778.497935264863,1247.13505540938 734.846273298497,1282.17121398269 619.770973197456,957.642824921494" fill="none" stroke="red"/>
<polygon points="734.846273298497,1282.17121398269 672.519089007062,1307.86794720506 619.770973197456,957.642824921494" fill="none" stroke="red"/>
<polygon points="672.519089007062,1307.86794720506 625.099704482866,1317.88802561525 619.770973197456,957.642824921494" fill="none" stroke="red"/>
<polygon points="625.099704482866,1317.88802561525 545.89764972483,1312.22812083647 619.770973197456,957.642824921494" fill="none" stroke="red"/>
<polygon points="545.89764972483,1312.22812083647 472.350507180354,1297.40186630126 619.770973197456,957.642824921494" fill="none" stroke="red"/>
<polygon points="472.350507180354,1297.40186630126 430.1167337384,1271.78334993412 619.770973197456,957.642824921494" fill="none" stroke="red"/>
<polygon points="430.1167337384,1271.78334993412 390.582273895739,1236.4842495922 619.770973197456,957.642824921494" fill="none" stroke="red"/>
<polygon points="390.582273895739,1236.4842495922 354.474377987076,1204.82639348903 619.770973197456,957.642824921494" fill="none" stroke="red"/>
<polygon points="777.349645262698,1131.22266853865 828.280467329746,1136.02385209842 582.834311461143,1134.93547287898" fill="none" stroke="red"/>
<polygon points="828.280467329746,1136.02385209842 808.27193008912,1198.51911941916 582.834311461143,1134.93547287898" fill="none" stroke="red"/>
<polygon points="808.27193008912,1198.51911941916 778.497935264863,1247.13505540938 582.834311461143,1134.93547287898" fill="none" stroke="red"/>
<polygon points="778.497935264863,1247.13505540938 734.846273298497,1282.17121398269 582.834311461143,1134.93547287898" fill="none" stroke="red"/>
<polygon points="734.846273298497,1282.17121398269 672.519089007062,1307.86794720506 582.834311461143,1134.93547287898" fill="none" stroke="red"/>
<polygon points="672.519089007062,1307.86794720506 625.099704482866,1317.88802561525 582.834311461143,1134.93547287898" fill="none" stroke="red"/>
<polygon points="625.099704482866,1317.88802561525 545.89764972483,1312.22812083647 582.834311461143,1134.93547287898" fill="none" stroke="red"/>
<polygon points="545.89764972483,1312.22812083647 472.350507180354,1297.40186630126 582.834311461143,1134.93547287898" fill="none" stroke="red"/>
<polygon points="472.350507180354,1297.40186630126 430.1167337384,1271.78334993412 582.834311461143,1134.93547287898" fill="none" stroke="red"/>
<polygon points="430.1167337384,1271.78334993412 390.582273895739,1236.4842495922 582.834311461143,1134.93547287898" fill="none" stroke="red"/>
<polygon points="390.582273895739,1236.4842495922 354.474377987076,1204.82639348903 582.834311461143,1134.93547287898" fill="none" stroke="red"/>
<polygon points="354.474377987076,1204.82639348903 314.597095332174,1171.49769222328 582.834311461143,1134.93547287898" fill="none" stroke="red"/>
<polygon points="314.597095332174,1171.49769222328 250.302840341377,1150.16113263233 582.834311461143,1134.93547287898" fill="none" stroke="red"/>
<polygon points="250.302840341377,1150.16113263233 184.637294101618,1136.70616934609 582.834311461143,1134.93547287898" fill="none" stroke="red"/>
<polygon points="184.637294101618,1136.70616934609 127.710401197177,1119.69649961836 582.834311461143,1134.93547287898" fill="none" stroke="red"/>
<polygon points="127.710401197177,1119.69649961836 106.465371968713,1101.78983233822 582.834311461143,1134.93547287898" fill="none" stroke="red"/>
<polygon points="106.465371968713,1101.78983233822 451.930915402721,1117.23516496155 582.834311461143,1134.93547287898" fill="none" stroke="red"/>
<rect x="0" y="0" width="100" height="100" stroke="green" fill='none'/>

</svg>
