<svg width="1228.23124891933" height="953.904384358119" xmlns="http://www.w3.org/2000/svg">

<polygon points="
103.501145297808,540.538154587048 
104.123620590213,574.7223609012 
113.543845605314,613.397440808832 
127.267979048595,637.219177028795 
143.600721702958,661.393327746841 
161.124254398214,682.06707509234 
177.408771910734,690.656343817222 
196.341962598327,700.895654318397 
211.181951631331,704.767020320507 
226.646641732518,700.825913344039 
222.958531269411,623.440883041597 
252.005647089386,624.708833309441 
253.232049542719,706.499415800562 
295.754753844169,709.516083904162 
330.053958573485,726.641202735269 
358.497889157792,750.441423122717 
394.834420648664,777.461599134765 
423.118095377,796.07131040938 
457.564201307623,817.954395927251 
489.254796825858,834.727100260274 
519.853278362663,844.173292659444 
555.076180039589,849.147159596614 
594.151899587147,852.703207363597 
590.086891092405,482.652403944911 
619.945673145863,482.163475199148 
625.36172753747,853.904384358119 
670.266011920709,849.920245716621 
709.453762182395,843.081920603273 
748.900444359516,830.607189296357 
768.856008054182,817.868332597192 
800.735794513494,798.699951602457 
825.315778348282,781.488769441292 
845.623756541032,766.141303531046 
861.646374437081,752.225011445652 
893.120327779652,733.93506995772 
912.184097312851,720.357837715745 
946.587171578444,712.801328951564 
967.349208029779,712.160305527681 
968.67799616887,628.991967830365 
999.00938461239,629.787311708146 
996.236067993783,708.237746682691 
1027.82501975152,707.695399318271 
1049.63094504244,698.796005835075 
1067.04467279935,687.867446768174 
1083.83889296488,670.896648390965 
1101.23110488928,645.248292183038 
1113.09374785741,622.801343468232 
1119.8860736047,604.407532444023 
1125.24722552713,581.728361123111 
1125.10551780264,563.11568214746 
1126.24808270169,544.030396781746 
875.498860950191,541.814266032742 
875.495893249154,513.672299028898 
1127.90851143161,513.672299028898 
1128.23124891933,482.056637961835 
1127.37655102082,454.373922693389 
1126.20950258821,430.597443914232 
1123.35234841533,408.172011031941 
1119.80891337775,377.541626708995 
1114.36985930311,355.628864180759 
1104.86431288321,328.213242005598 
1097.32931995154,308.52996488103 
1090.03990428065,282.777739136826 
1083.84260259118,264.352025326474 
1078.4169031712,242.871805224307 
1071.31445266561,223.175173445075 
1062.28151263577,197.043823893458 
1054.71981039477,176.495461916752 
1044.58956290669,156.892312720169 
1038.85151295262,139.318329107292 
1029.10038927195,117.971655551768 
1020.41467026338,103.086409077957 
1008.19664509613,100 
1003.24058436518,304.074703699989 
974.28695112785,305.834550414631 
976.687821266376,103.137601920837 
946.409851441514,104.072427747333 
908.068637900488,124.306213414171 
878.690623414943,140.366669498435 
840.768597645323,160.154558084539 
809.687122764829,177.133517639599 
784.228699423238,193.938866684023 
742.87304355439,214.69867735958 
697.245382043505,237.322204286057 
665.191985073558,250.86753374189 
645.116229486914,259.713508606429 
614.565973091952,265.852198200423 
596.399191197035,266.413093696321 
571.557307745776,261.11871504721 
539.21530185003,251.293398840627 
513.254595108011,237.807423405525 
493.090550415531,229.77088899869 
461.859206632694,213.849914863142 
426.235665315841,195.899775143889 
399.423228376348,182.873051444184 
377.34204881429,168.834341691034 
346.017222448803,149.885570573 
320.096579670778,137.697222416106 
296.231811785786,121.981761577335 
275.621870012572,113.526039399095 
254.739641669259,110.274180988353 
238.236256205298,108.618945735247 
246.568818790523,308.386773306019 
215.871661194255,309.767496213249 
209.635037466057,107.770183238809 
196.020708961126,115.550753431245 
181.736421947206,143.700881612939 
170.872410377849,170.446545279111 
154.187995150661,219.01965006872 
147.011352119152,253.011697740759 
134.291785476725,289.772610479849 
123.628093727332,323.006410537063 
113.044529905923,358.835465150694 
107.058676915309,389.327109450184 
104.207458144494,423.185610575581 
101.967585787198,448.799096296329 
100,469.208718249579 
101.572881549343,492.106757521932 
102.945443278724,508.516660403244 
342.002664871682,510.660824402113 
343.223131922941,536.167472885547 
107.380672477768,539.985420269001 
" fill="none" stroke="black"/>
<text x="103.501145297808" y="540.538154587048" font-size="20" dy="-2" text-anchor="middle" fill="red">0</text>
<text x="104.123620590213" y="574.7223609012" font-size="20" dy="-2" text-anchor="middle" fill="red">1</text>
<text x="113.543845605314" y="613.397440808832" font-size="20" dy="-2" text-anchor="middle" fill="red">2</text>
<text x="127.267979048595" y="637.219177028795" font-size="20" dy="-2" text-anchor="middle" fill="red">3</text>
<text x="143.600721702958" y="661.393327746841" font-size="20" dy="-2" text-anchor="middle" fill="red">4</text>
<text x="161.124254398214" y="682.06707509234" font-size="20" dy="-2" text-anchor="middle" fill="red">5</text>
<text x="177.408771910734" y="690.656343817222" font-size="20" dy="-2" text-anchor="middle" fill="red">6</text>
<text x="196.341962598327" y="700.895654318397" font-size="20" dy="-2" text-anchor="middle" fill="red">7</text>
<text x="211.181951631331" y="704.767020320507" font-size="20" dy="-2" text-anchor="middle" fill="red">8</text>
<text x="226.646641732518" y="700.825913344039" font-size="20" dy="-2" text-anchor="middle" fill="red">9</text>
<text x="222.958531269411" y="623.440883041597" font-size="20" dy="-2" text-anchor="middle" fill="red">10</text>
<text x="252.005647089386" y="624.708833309441" font-size="20" dy="-2" text-anchor="middle" fill="red">11</text>
<text x="253.232049542719" y="706.499415800562" font-size="20" dy="-2" text-anchor="middle" fill="red">12</text>
<text x="295.754753844169" y="709.516083904162" font-size="20" dy="-2" text-anchor="middle" fill="red">13</text>
<text x="330.053958573485" y="726.641202735269" font-size="20" dy="-2" text-anchor="middle" fill="red">14</text>
<text x="358.497889157792" y="750.441423122717" font-size="20" dy="-2" text-anchor="middle" fill="red">15</text>
<text x="394.834420648664" y="777.461599134765" font-size="20" dy="-2" text-anchor="middle" fill="red">16</text>
<text x="423.118095377" y="796.07131040938" font-size="20" dy="-2" text-anchor="middle" fill="red">17</text>
<text x="457.564201307623" y="817.954395927251" font-size="20" dy="-2" text-anchor="middle" fill="red">18</text>
<text x="489.254796825858" y="834.727100260274" font-size="20" dy="-2" text-anchor="middle" fill="red">19</text>
<text x="519.853278362663" y="844.173292659444" font-size="20" dy="-2" text-anchor="middle" fill="red">20</text>
<text x="555.076180039589" y="849.147159596614" font-size="20" dy="-2" text-anchor="middle" fill="red">21</text>
<text x="594.151899587147" y="852.703207363597" font-size="20" dy="-2" text-anchor="middle" fill="red">22</text>
<text x="590.086891092405" y="482.652403944911" font-size="20" dy="-2" text-anchor="middle" fill="red">23</text>
<text x="619.945673145863" y="482.163475199148" font-size="20" dy="-2" text-anchor="middle" fill="red">24</text>
<text x="625.36172753747" y="853.904384358119" font-size="20" dy="-2" text-anchor="middle" fill="red">25</text>
<text x="670.266011920709" y="849.920245716621" font-size="20" dy="-2" text-anchor="middle" fill="red">26</text>
<text x="709.453762182395" y="843.081920603273" font-size="20" dy="-2" text-anchor="middle" fill="red">27</text>
<text x="748.900444359516" y="830.607189296357" font-size="20" dy="-2" text-anchor="middle" fill="red">28</text>
<text x="768.856008054182" y="817.868332597192" font-size="20" dy="-2" text-anchor="middle" fill="red">29</text>
<text x="800.735794513494" y="798.699951602457" font-size="20" dy="-2" text-anchor="middle" fill="red">30</text>
<text x="825.315778348282" y="781.488769441292" font-size="20" dy="-2" text-anchor="middle" fill="red">31</text>
<text x="845.623756541032" y="766.141303531046" font-size="20" dy="-2" text-anchor="middle" fill="red">32</text>
<text x="861.646374437081" y="752.225011445652" font-size="20" dy="-2" text-anchor="middle" fill="red">33</text>
<text x="893.120327779652" y="733.93506995772" font-size="20" dy="-2" text-anchor="middle" fill="red">34</text>
<text x="912.184097312851" y="720.357837715745" font-size="20" dy="-2" text-anchor="middle" fill="red">35</text>
<text x="946.587171578444" y="712.801328951564" font-size="20" dy="-2" text-anchor="middle" fill="red">36</text>
<text x="967.349208029779" y="712.160305527681" font-size="20" dy="-2" text-anchor="middle" fill="red">37</text>
<text x="968.67799616887" y="628.991967830365" font-size="20" dy="-2" text-anchor="middle" fill="red">38</text>
<text x="999.00938461239" y="629.787311708146" font-size="20" dy="-2" text-anchor="middle" fill="red">39</text>
<text x="996.236067993783" y="708.237746682691" font-size="20" dy="-2" text-anchor="middle" fill="red">40</text>
<text x="1027.82501975152" y="707.695399318271" font-size="20" dy="-2" text-anchor="middle" fill="red">41</text>
<text x="1049.63094504244" y="698.796005835075" font-size="20" dy="-2" text-anchor="middle" fill="red">42</text>
<text x="1067.04467279935" y="687.867446768174" font-size="20" dy="-2" text-anchor="middle" fill="red">43</text>
<text x="1083.83889296488" y="670.896648390965" font-size="20" dy="-2" text-anchor="middle" fill="red">44</text>
<text x="1101.23110488928" y="645.248292183038" font-size="20" dy="-2" text-anchor="middle" fill="red">45</text>
<text x="1113.09374785741" y="622.801343468232" font-size="20" dy="-2" text-anchor="middle" fill="red">46</text>
<text x="1119.8860736047" y="604.407532444023" font-size="20" dy="-2" text-anchor="middle" fill="red">47</text>
<text x="1125.24722552713" y="581.728361123111" font-size="20" dy="-2" text-anchor="middle" fill="red">48</text>
<text x="1125.10551780264" y="563.11568214746" font-size="20" dy="-2" text-anchor="middle" fill="red">49</text>
<text x="1126.24808270169" y="544.030396781746" font-size="20" dy="-2" text-anchor="middle" fill="red">50</text>
<text x="875.498860950191" y="541.814266032742" font-size="20" dy="-2" text-anchor="middle" fill="red">51</text>
<text x="875.495893249154" y="513.672299028898" font-size="20" dy="-2" text-anchor="middle" fill="red">52</text>
<text x="1127.90851143161" y="513.672299028898" font-size="20" dy="-2" text-anchor="middle" fill="red">53</text>
<text x="1128.23124891933" y="482.056637961835" font-size="20" dy="-2" text-anchor="middle" fill="red">54</text>
<text x="1127.37655102082" y="454.373922693389" font-size="20" dy="-2" text-anchor="middle" fill="red">55</text>
<text x="1126.20950258821" y="430.597443914232" font-size="20" dy="-2" text-anchor="middle" fill="red">56</text>
<text x="1123.35234841533" y="408.172011031941" font-size="20" dy="-2" text-anchor="middle" fill="red">57</text>
<text x="1119.80891337775" y="377.541626708995" font-size="20" dy="-2" text-anchor="middle" fill="red">58</text>
<text x="1114.36985930311" y="355.628864180759" font-size="20" dy="-2" text-anchor="middle" fill="red">59</text>
<text x="1104.86431288321" y="328.213242005598" font-size="20" dy="-2" text-anchor="middle" fill="red">60</text>
<text x="1097.32931995154" y="308.52996488103" font-size="20" dy="-2" text-anchor="middle" fill="red">61</text>
<text x="1090.03990428065" y="282.777739136826" font-size="20" dy="-2" text-anchor="middle" fill="red">62</text>
<text x="1083.84260259118" y="264.352025326474" font-size="20" dy="-2" text-anchor="middle" fill="red">63</text>
<text x="1078.4169031712" y="242.871805224307" font-size="20" dy="-2" text-anchor="middle" fill="red">64</text>
<text x="1071.31445266561" y="223.175173445075" font-size="20" dy="-2" text-anchor="middle" fill="red">65</text>
<text x="1062.28151263577" y="197.043823893458" font-size="20" dy="-2" text-anchor="middle" fill="red">66</text>
<text x="1054.71981039477" y="176.495461916752" font-size="20" dy="-2" text-anchor="middle" fill="red">67</text>
<text x="1044.58956290669" y="156.892312720169" font-size="20" dy="-2" text-anchor="middle" fill="red">68</text>
<text x="1038.85151295262" y="139.318329107292" font-size="20" dy="-2" text-anchor="middle" fill="red">69</text>
<text x="1029.10038927195" y="117.971655551768" font-size="20" dy="-2" text-anchor="middle" fill="red">70</text>
<text x="1020.41467026338" y="103.086409077957" font-size="20" dy="-2" text-anchor="middle" fill="red">71</text>
<text x="1008.19664509613" y="100" font-size="20" dy="-2" text-anchor="middle" fill="red">72</text>
<text x="1003.24058436518" y="304.074703699989" font-size="20" dy="-2" text-anchor="middle" fill="red">73</text>
<text x="974.28695112785" y="305.834550414631" font-size="20" dy="-2" text-anchor="middle" fill="red">74</text>
<text x="976.687821266376" y="103.137601920837" font-size="20" dy="-2" text-anchor="middle" fill="red">75</text>
<text x="946.409851441514" y="104.072427747333" font-size="20" dy="-2" text-anchor="middle" fill="red">76</text>
<text x="908.068637900488" y="124.306213414171" font-size="20" dy="-2" text-anchor="middle" fill="red">77</text>
<text x="878.690623414943" y="140.366669498435" font-size="20" dy="-2" text-anchor="middle" fill="red">78</text>
<text x="840.768597645323" y="160.154558084539" font-size="20" dy="-2" text-anchor="middle" fill="red">79</text>
<text x="809.687122764829" y="177.133517639599" font-size="20" dy="-2" text-anchor="middle" fill="red">80</text>
<text x="784.228699423238" y="193.938866684023" font-size="20" dy="-2" text-anchor="middle" fill="red">81</text>
<text x="742.87304355439" y="214.69867735958" font-size="20" dy="-2" text-anchor="middle" fill="red">82</text>
<text x="697.245382043505" y="237.322204286057" font-size="20" dy="-2" text-anchor="middle" fill="red">83</text>
<text x="665.191985073558" y="250.86753374189" font-size="20" dy="-2" text-anchor="middle" fill="red">84</text>
<text x="645.116229486914" y="259.713508606429" font-size="20" dy="-2" text-anchor="middle" fill="red">85</text>
<text x="614.565973091952" y="265.852198200423" font-size="20" dy="-2" text-anchor="middle" fill="red">86</text>
<text x="596.399191197035" y="266.413093696321" font-size="20" dy="-2" text-anchor="middle" fill="red">87</text>
<text x="571.557307745776" y="261.11871504721" font-size="20" dy="-2" text-anchor="middle" fill="red">88</text>
<text x="539.21530185003" y="251.293398840627" font-size="20" dy="-2" text-anchor="middle" fill="red">89</text>
<text x="513.254595108011" y="237.807423405525" font-size="20" dy="-2" text-anchor="middle" fill="red">90</text>
<text x="493.090550415531" y="229.77088899869" font-size="20" dy="-2" text-anchor="middle" fill="red">91</text>
<text x="461.859206632694" y="213.849914863142" font-size="20" dy="-2" text-anchor="middle" fill="red">92</text>
<text x="426.235665315841" y="195.899775143889" font-size="20" dy="-2" text-anchor="middle" fill="red">93</text>
<text x="399.423228376348" y="182.873051444184" font-size="20" dy="-2" text-anchor="middle" fill="red">94</text>
<text x="377.34204881429" y="168.834341691034" font-size="20" dy="-2" text-anchor="middle" fill="red">95</text>
<text x="346.017222448803" y="149.885570573" font-size="20" dy="-2" text-anchor="middle" fill="red">96</text>
<text x="320.096579670778" y="137.697222416106" font-size="20" dy="-2" text-anchor="middle" fill="red">97</text>
<text x="296.231811785786" y="121.981761577335" font-size="20" dy="-2" text-anchor="middle" fill="red">98</text>
<text x="275.621870012572" y="113.526039399095" font-size="20" dy="-2" text-anchor="middle" fill="red">99</text>
<text x="254.739641669259" y="110.274180988353" font-size="20" dy="-2" text-anchor="middle" fill="red">100</text>
<text x="238.236256205298" y="108.618945735247" font-size="20" dy="-2" text-anchor="middle" fill="red">101</text>
<text x="246.568818790523" y="308.386773306019" font-size="20" dy="-2" text-anchor="middle" fill="red">102</text>
<text x="215.871661194255" y="309.767496213249" font-size="20" dy="-2" text-anchor="middle" fill="red">103</text>
<text x="209.635037466057" y="107.770183238809" font-size="20" dy="-2" text-anchor="middle" fill="red">104</text>
<text x="196.020708961126" y="115.550753431245" font-size="20" dy="-2" text-anchor="middle" fill="red">105</text>
<text x="181.736421947206" y="143.700881612939" font-size="20" dy="-2" text-anchor="middle" fill="red">106</text>
<text x="170.872410377849" y="170.446545279111" font-size="20" dy="-2" text-anchor="middle" fill="red">107</text>
<text x="154.187995150661" y="219.01965006872" font-size="20" dy="-2" text-anchor="middle" fill="red">108</text>
<text x="147.011352119152" y="253.011697740759" font-size="20" dy="-2" text-anchor="middle" fill="red">109</text>
<text x="134.291785476725" y="289.772610479849" font-size="20" dy="-2" text-anchor="middle" fill="red">110</text>
<text x="123.628093727332" y="323.006410537063" font-size="20" dy="-2" text-anchor="middle" fill="red">111</text>
<text x="113.044529905923" y="358.835465150694" font-size="20" dy="-2" text-anchor="middle" fill="red">112</text>
<text x="107.058676915309" y="389.327109450184" font-size="20" dy="-2" text-anchor="middle" fill="red">113</text>
<text x="104.207458144494" y="423.185610575581" font-size="20" dy="-2" text-anchor="middle" fill="red">114</text>
<text x="101.967585787198" y="448.799096296329" font-size="20" dy="-2" text-anchor="middle" fill="red">115</text>
<text x="100" y="469.208718249579" font-size="20" dy="-2" text-anchor="middle" fill="red">116</text>
<text x="101.572881549343" y="492.106757521932" font-size="20" dy="-2" text-anchor="middle" fill="red">117</text>
<text x="102.945443278724" y="508.516660403244" font-size="20" dy="-2" text-anchor="middle" fill="red">118</text>
<text x="342.002664871682" y="510.660824402113" font-size="20" dy="-2" text-anchor="middle" fill="red">119</text>
<text x="343.223131922941" y="536.167472885547" font-size="20" dy="-2" text-anchor="middle" fill="red">120</text>
<text x="107.380672477768" y="539.985420269001" font-size="20" dy="-2" text-anchor="middle" fill="red">121</text>
<polygon points="103.501145297808,540.538154587048 104.123620590213,574.7223609012 222.958531269411,623.440883041597" fill="none" stroke="red"/>
<polygon points="104.123620590213,574.7223609012 113.543845605314,613.397440808832 222.958531269411,623.440883041597" fill="none" stroke="red"/>
<polygon points="113.543845605314,613.397440808832 127.267979048595,637.219177028795 222.958531269411,623.440883041597" fill="none" stroke="red"/>
<polygon points="127.267979048595,637.219177028795 143.600721702958,661.393327746841 222.958531269411,623.440883041597" fill="none" stroke="red"/>
<polygon points="143.600721702958,661.393327746841 161.124254398214,682.06707509234 222.958531269411,623.440883041597" fill="none" stroke="red"/>
<polygon points="161.124254398214,682.06707509234 177.408771910734,690.656343817222 222.958531269411,623.440883041597" fill="none" stroke="red"/>
<polygon points="177.408771910734,690.656343817222 196.341962598327,700.895654318397 222.958531269411,623.440883041597" fill="none" stroke="red"/>
<polygon points="196.341962598327,700.895654318397 211.181951631331,704.767020320507 222.958531269411,623.440883041597" fill="none" stroke="red"/>
<polygon points="211.181951631331,704.767020320507 226.646641732518,700.825913344039 222.958531269411,623.440883041597" fill="none" stroke="red"/>
<polygon points="343.223131922941,536.167472885547 107.380672477768,539.985420269001 222.958531269411,623.440883041597" fill="none" stroke="red"/>
<polygon points="252.005647089386,624.708833309441 343.223131922941,536.167472885547 222.958531269411,623.440883041597" fill="none" stroke="red"/>
<polygon points="252.005647089386,624.708833309441 253.232049542719,706.499415800562 590.086891092405,482.652403944911" fill="none" stroke="red"/>
<polygon points="253.232049542719,706.499415800562 295.754753844169,709.516083904162 590.086891092405,482.652403944911" fill="none" stroke="red"/>
<polygon points="295.754753844169,709.516083904162 330.053958573485,726.641202735269 590.086891092405,482.652403944911" fill="none" stroke="red"/>
<polygon points="330.053958573485,726.641202735269 358.497889157792,750.441423122717 590.086891092405,482.652403944911" fill="none" stroke="red"/>
<polygon points="358.497889157792,750.441423122717 394.834420648664,777.461599134765 590.086891092405,482.652403944911" fill="none" stroke="red"/>
<polygon points="394.834420648664,777.461599134765 423.118095377,796.07131040938 590.086891092405,482.652403944911" fill="none" stroke="red"/>
<polygon points="423.118095377,796.07131040938 457.564201307623,817.954395927251 590.086891092405,482.652403944911" fill="none" stroke="red"/>
<polygon points="457.564201307623,817.954395927251 489.254796825858,834.727100260274 590.086891092405,482.652403944911" fill="none" stroke="red"/>
<polygon points="489.254796825858,834.727100260274 519.853278362663,844.173292659444 590.086891092405,482.652403944911" fill="none" stroke="red"/>
<polygon points="519.853278362663,844.173292659444 555.076180039589,849.147159596614 590.086891092405,482.652403944911" fill="none" stroke="red"/>
<polygon points="555.076180039589,849.147159596614 594.151899587147,852.703207363597 590.086891092405,482.652403944911" fill="none" stroke="red"/>
<polygon points="342.002664871682,510.660824402113 343.223131922941,536.167472885547 590.086891092405,482.652403944911" fill="none" stroke="red"/>
<polygon points="343.223131922941,536.167472885547 252.005647089386,624.708833309441 590.086891092405,482.652403944911" fill="none" stroke="red"/>
<polygon points="123.628093727332,323.006410537063 113.044529905923,358.835465150694 590.086891092405,482.652403944911" fill="none" stroke="red"/>
<polygon points="113.044529905923,358.835465150694 107.058676915309,389.327109450184 590.086891092405,482.652403944911" fill="none" stroke="red"/>
<polygon points="107.058676915309,389.327109450184 104.207458144494,423.185610575581 590.086891092405,482.652403944911" fill="none" stroke="red"/>
<polygon points="104.207458144494,423.185610575581 101.967585787198,448.799096296329 590.086891092405,482.652403944911" fill="none" stroke="red"/>
<polygon points="101.967585787198,448.799096296329 100,469.208718249579 590.086891092405,482.652403944911" fill="none" stroke="red"/>
<polygon points="100,469.208718249579 101.572881549343,492.106757521932 590.086891092405,482.652403944911" fill="none" stroke="red"/>
<polygon points="101.572881549343,492.106757521932 102.945443278724,508.516660403244 590.086891092405,482.652403944911" fill="none" stroke="red"/>
<polygon points="102.945443278724,508.516660403244 342.002664871682,510.660824402113 590.086891092405,482.652403944911" fill="none" stroke="red"/>
<polygon points="1003.24058436518,304.074703699989 974.28695112785,305.834550414631 590.086891092405,482.652403944911" fill="none" stroke="red"/>
<polygon points="974.28695112785,305.834550414631 976.687821266376,103.137601920837 590.086891092405,482.652403944911" fill="none" stroke="red"/>
<polygon points="976.687821266376,103.137601920837 946.409851441514,104.072427747333 590.086891092405,482.652403944911" fill="none" stroke="red"/>
<polygon points="946.409851441514,104.072427747333 908.068637900488,124.306213414171 590.086891092405,482.652403944911" fill="none" stroke="red"/>
<polygon points="908.068637900488,124.306213414171 878.690623414943,140.366669498435 590.086891092405,482.652403944911" fill="none" stroke="red"/>
<polygon points="878.690623414943,140.366669498435 840.768597645323,160.154558084539 590.086891092405,482.652403944911" fill="none" stroke="red"/>
<polygon points="840.768597645323,160.154558084539 809.687122764829,177.133517639599 590.086891092405,482.652403944911" fill="none" stroke="red"/>
<polygon points="809.687122764829,177.133517639599 784.228699423238,193.938866684023 590.086891092405,482.652403944911" fill="none" stroke="red"/>
<polygon points="784.228699423238,193.938866684023 742.87304355439,214.69867735958 590.086891092405,482.652403944911" fill="none" stroke="red"/>
<polygon points="742.87304355439,214.69867735958 697.245382043505,237.322204286057 590.086891092405,482.652403944911" fill="none" stroke="red"/>
<polygon points="697.245382043505,237.322204286057 665.191985073558,250.86753374189 590.086891092405,482.652403944911" fill="none" stroke="red"/>
<polygon points="665.191985073558,250.86753374189 645.116229486914,259.713508606429 590.086891092405,482.652403944911" fill="none" stroke="red"/>
<polygon points="645.116229486914,259.713508606429 614.565973091952,265.852198200423 590.086891092405,482.652403944911" fill="none" stroke="red"/>
<polygon points="614.565973091952,265.852198200423 596.399191197035,266.413093696321 590.086891092405,482.652403944911" fill="none" stroke="red"/>
<polygon points="596.399191197035,266.413093696321 571.557307745776,261.11871504721 590.086891092405,482.652403944911" fill="none" stroke="red"/>
<polygon points="571.557307745776,261.11871504721 539.21530185003,251.293398840627 590.086891092405,482.652403944911" fill="none" stroke="red"/>
<polygon points="539.21530185003,251.293398840627 513.254595108011,237.807423405525 590.086891092405,482.652403944911" fill="none" stroke="red"/>
<polygon points="513.254595108011,237.807423405525 493.090550415531,229.77088899869 590.086891092405,482.652403944911" fill="none" stroke="red"/>
<polygon points="493.090550415531,229.77088899869 461.859206632694,213.849914863142 590.086891092405,482.652403944911" fill="none" stroke="red"/>
<polygon points="461.859206632694,213.849914863142 426.235665315841,195.899775143889 590.086891092405,482.652403944911" fill="none" stroke="red"/>
<polygon points="426.235665315841,195.899775143889 399.423228376348,182.873051444184 590.086891092405,482.652403944911" fill="none" stroke="red"/>
<polygon points="399.423228376348,182.873051444184 377.34204881429,168.834341691034 590.086891092405,482.652403944911" fill="none" stroke="red"/>
<polygon points="377.34204881429,168.834341691034 346.017222448803,149.885570573 590.086891092405,482.652403944911" fill="none" stroke="red"/>
<polygon points="346.017222448803,149.885570573 320.096579670778,137.697222416106 590.086891092405,482.652403944911" fill="none" stroke="red"/>
<polygon points="320.096579670778,137.697222416106 296.231811785786,121.981761577335 590.086891092405,482.652403944911" fill="none" stroke="red"/>
<polygon points="296.231811785786,121.981761577335 275.621870012572,113.526039399095 590.086891092405,482.652403944911" fill="none" stroke="red"/>
<polygon points="275.621870012572,113.526039399095 254.739641669259,110.274180988353 590.086891092405,482.652403944911" fill="none" stroke="red"/>
<polygon points="254.739641669259,110.274180988353 238.236256205298,108.618945735247 590.086891092405,482.652403944911" fill="none" stroke="red"/>
<polygon points="238.236256205298,108.618945735247 246.568818790523,308.386773306019 590.086891092405,482.652403944911" fill="none" stroke="red"/>
<polygon points="246.568818790523,308.386773306019 215.871661194255,309.767496213249 590.086891092405,482.652403944911" fill="none" stroke="red"/>
<polygon points="246.568818790523,308.386773306019 123.628093727332,323.006410537063 590.086891092405,482.652403944911" fill="none" stroke="red"/>
<polygon points="619.945673145863,482.163475199148 1003.24058436518,304.074703699989 590.086891092405,482.652403944911" fill="none" stroke="red"/>
<polygon points="209.635037466057,107.770183238809 196.020708961126,115.550753431245 215.871661194255,309.767496213249" fill="none" stroke="red"/>
<polygon points="196.020708961126,115.550753431245 181.736421947206,143.700881612939 215.871661194255,309.767496213249" fill="none" stroke="red"/>
<polygon points="181.736421947206,143.700881612939 170.872410377849,170.446545279111 215.871661194255,309.767496213249" fill="none" stroke="red"/>
<polygon points="170.872410377849,170.446545279111 154.187995150661,219.01965006872 215.871661194255,309.767496213249" fill="none" stroke="red"/>
<polygon points="154.187995150661,219.01965006872 147.011352119152,253.011697740759 215.871661194255,309.767496213249" fill="none" stroke="red"/>
<polygon points="147.011352119152,253.011697740759 134.291785476725,289.772610479849 215.871661194255,309.767496213249" fill="none" stroke="red"/>
<polygon points="134.291785476725,289.772610479849 123.628093727332,323.006410537063 215.871661194255,309.767496213249" fill="none" stroke="red"/>
<polygon points="625.36172753747,853.904384358119 670.266011920709,849.920245716621 619.945673145863,482.163475199148" fill="none" stroke="red"/>
<polygon points="670.266011920709,849.920245716621 709.453762182395,843.081920603273 619.945673145863,482.163475199148" fill="none" stroke="red"/>
<polygon points="709.453762182395,843.081920603273 748.900444359516,830.607189296357 619.945673145863,482.163475199148" fill="none" stroke="red"/>
<polygon points="748.900444359516,830.607189296357 768.856008054182,817.868332597192 619.945673145863,482.163475199148" fill="none" stroke="red"/>
<polygon points="768.856008054182,817.868332597192 800.735794513494,798.699951602457 619.945673145863,482.163475199148" fill="none" stroke="red"/>
<polygon points="800.735794513494,798.699951602457 825.315778348282,781.488769441292 619.945673145863,482.163475199148" fill="none" stroke="red"/>
<polygon points="825.315778348282,781.488769441292 845.623756541032,766.141303531046 619.945673145863,482.163475199148" fill="none" stroke="red"/>
<polygon points="845.623756541032,766.141303531046 861.646374437081,752.225011445652 619.945673145863,482.163475199148" fill="none" stroke="red"/>
<polygon points="861.646374437081,752.225011445652 893.120327779652,733.93506995772 619.945673145863,482.163475199148" fill="none" stroke="red"/>
<polygon points="893.120327779652,733.93506995772 912.184097312851,720.357837715745 619.945673145863,482.163475199148" fill="none" stroke="red"/>
<polygon points="912.184097312851,720.357837715745 946.587171578444,712.801328951564 619.945673145863,482.163475199148" fill="none" stroke="red"/>
<polygon points="946.587171578444,712.801328951564 967.349208029779,712.160305527681 619.945673145863,482.163475199148" fill="none" stroke="red"/>
<polygon points="967.349208029779,712.160305527681 968.67799616887,628.991967830365 619.945673145863,482.163475199148" fill="none" stroke="red"/>
<polygon points="968.67799616887,628.991967830365 999.00938461239,629.787311708146 619.945673145863,482.163475199148" fill="none" stroke="red"/>
<polygon points="999.00938461239,629.787311708146 875.498860950191,541.814266032742 619.945673145863,482.163475199148" fill="none" stroke="red"/>
<polygon points="875.498860950191,541.814266032742 875.495893249154,513.672299028898 619.945673145863,482.163475199148" fill="none" stroke="red"/>
<polygon points="875.495893249154,513.672299028898 1127.90851143161,513.672299028898 619.945673145863,482.163475199148" fill="none" stroke="red"/>
<polygon points="1127.90851143161,513.672299028898 1128.23124891933,482.056637961835 619.945673145863,482.163475199148" fill="none" stroke="red"/>
<polygon points="1128.23124891933,482.056637961835 1127.37655102082,454.373922693389 619.945673145863,482.163475199148" fill="none" stroke="red"/>
<polygon points="1127.37655102082,454.373922693389 1126.20950258821,430.597443914232 619.945673145863,482.163475199148" fill="none" stroke="red"/>
<polygon points="1126.20950258821,430.597443914232 1123.35234841533,408.172011031941 619.945673145863,482.163475199148" fill="none" stroke="red"/>
<polygon points="1123.35234841533,408.172011031941 1119.80891337775,377.541626708995 619.945673145863,482.163475199148" fill="none" stroke="red"/>
<polygon points="1119.80891337775,377.541626708995 1114.36985930311,355.628864180759 619.945673145863,482.163475199148" fill="none" stroke="red"/>
<polygon points="1114.36985930311,355.628864180759 1104.86431288321,328.213242005598 619.945673145863,482.163475199148" fill="none" stroke="red"/>
<polygon points="1104.86431288321,328.213242005598 1097.32931995154,308.52996488103 619.945673145863,482.163475199148" fill="none" stroke="red"/>
<polygon points="1097.32931995154,308.52996488103 1090.03990428065,282.777739136826 619.945673145863,482.163475199148" fill="none" stroke="red"/>
<polygon points="1090.03990428065,282.777739136826 1003.24058436518,304.074703699989 619.945673145863,482.163475199148" fill="none" stroke="red"/>
<polygon points="996.236067993783,708.237746682691 1027.82501975152,707.695399318271 999.00938461239,629.787311708146" fill="none" stroke="red"/>
<polygon points="1027.82501975152,707.695399318271 1049.63094504244,698.796005835075 999.00938461239,629.787311708146" fill="none" stroke="red"/>
<polygon points="1049.63094504244,698.796005835075 1067.04467279935,687.867446768174 999.00938461239,629.787311708146" fill="none" stroke="red"/>
<polygon points="1067.04467279935,687.867446768174 1083.83889296488,670.896648390965 999.00938461239,629.787311708146" fill="none" stroke="red"/>
<polygon points="1083.83889296488,670.896648390965 1101.23110488928,645.248292183038 999.00938461239,629.787311708146" fill="none" stroke="red"/>
<polygon points="1101.23110488928,645.248292183038 1113.09374785741,622.801343468232 999.00938461239,629.787311708146" fill="none" stroke="red"/>
<polygon points="1113.09374785741,622.801343468232 1119.8860736047,604.407532444023 999.00938461239,629.787311708146" fill="none" stroke="red"/>
<polygon points="1119.8860736047,604.407532444023 1125.24722552713,581.728361123111 999.00938461239,629.787311708146" fill="none" stroke="red"/>
<polygon points="1125.24722552713,581.728361123111 1125.10551780264,563.11568214746 999.00938461239,629.787311708146" fill="none" stroke="red"/>
<polygon points="1125.10551780264,563.11568214746 1126.24808270169,544.030396781746 999.00938461239,629.787311708146" fill="none" stroke="red"/>
<polygon points="1126.24808270169,544.030396781746 875.498860950191,541.814266032742 999.00938461239,629.787311708146" fill="none" stroke="red"/>
<polygon points="1090.03990428065,282.777739136826 1083.84260259118,264.352025326474 1003.24058436518,304.074703699989" fill="none" stroke="red"/>
<polygon points="1083.84260259118,264.352025326474 1078.4169031712,242.871805224307 1003.24058436518,304.074703699989" fill="none" stroke="red"/>
<polygon points="1078.4169031712,242.871805224307 1071.31445266561,223.175173445075 1003.24058436518,304.074703699989" fill="none" stroke="red"/>
<polygon points="1071.31445266561,223.175173445075 1062.28151263577,197.043823893458 1003.24058436518,304.074703699989" fill="none" stroke="red"/>
<polygon points="1062.28151263577,197.043823893458 1054.71981039477,176.495461916752 1003.24058436518,304.074703699989" fill="none" stroke="red"/>
<polygon points="1054.71981039477,176.495461916752 1044.58956290669,156.892312720169 1003.24058436518,304.074703699989" fill="none" stroke="red"/>
<polygon points="1044.58956290669,156.892312720169 1038.85151295262,139.318329107292 1003.24058436518,304.074703699989" fill="none" stroke="red"/>
<polygon points="1038.85151295262,139.318329107292 1029.10038927195,117.971655551768 1003.24058436518,304.074703699989" fill="none" stroke="red"/>
<polygon points="1029.10038927195,117.971655551768 1020.41467026338,103.086409077957 1003.24058436518,304.074703699989" fill="none" stroke="red"/>
<rect x="0" y="0" width="100" height="100" stroke="green" fill='none'/>

</svg>
