<svg width="901.430265873009" height="437.166109311919" xmlns="http://www.w3.org/2000/svg">

<polygon points="
799.978689656224,193.099036011353 
453.374320129338,198.504952861707 
453.284063169622,240.90536521548 
800.354647217747,240.90536521548 
801.430265873009,317.537595756853 
720.995027795935,312.405842904433 
613.132531945332,324.191501696814 
488.057423115519,332.407599525993 
450.562781902999,337.166109311919 
382.599291236899,334.182879274993 
317.023198948848,326.549719253302 
250.133969690495,317.330615510888 
193.738299590694,310.561343532193 
154.498238074494,297.607094629806 
126.598658165911,283.282704361505 
104.650608608521,262.693938189913 
100,218.872487688432 
104.137569048031,174.903097207868 
141.580634854999,144.791882474366 
202.36428616926,125.651299400772 
260.442264563315,114.542907118139 
352.524722186288,104.684539796384 
385.625274570533,100 
466.998370680144,100.345419492447 
563.861732673033,107.023077263912 
626.976456593491,114.91207844209 
685.321812747907,116.502772529114 
745.599889363008,118.275337783084 
755.837607365073,118.263801179211 
796.640539394249,109.429477107165 
800.569770948799,186.817694514129 
" fill="none" stroke="black"/>
<text x="799.978689656224" y="193.099036011353" font-size="20" dy="-2" text-anchor="middle" fill="red">0</text>
<text x="453.374320129338" y="198.504952861707" font-size="20" dy="-2" text-anchor="middle" fill="red">1</text>
<text x="453.284063169622" y="240.90536521548" font-size="20" dy="-2" text-anchor="middle" fill="red">2</text>
<text x="800.354647217747" y="240.90536521548" font-size="20" dy="-2" text-anchor="middle" fill="red">3</text>
<text x="801.430265873009" y="317.537595756853" font-size="20" dy="-2" text-anchor="middle" fill="red">4</text>
<text x="720.995027795935" y="312.405842904433" font-size="20" dy="-2" text-anchor="middle" fill="red">5</text>
<text x="613.132531945332" y="324.191501696814" font-size="20" dy="-2" text-anchor="middle" fill="red">6</text>
<text x="488.057423115519" y="332.407599525993" font-size="20" dy="-2" text-anchor="middle" fill="red">7</text>
<text x="450.562781902999" y="337.166109311919" font-size="20" dy="-2" text-anchor="middle" fill="red">8</text>
<text x="382.599291236899" y="334.182879274993" font-size="20" dy="-2" text-anchor="middle" fill="red">9</text>
<text x="317.023198948848" y="326.549719253302" font-size="20" dy="-2" text-anchor="middle" fill="red">10</text>
<text x="250.133969690495" y="317.330615510888" font-size="20" dy="-2" text-anchor="middle" fill="red">11</text>
<text x="193.738299590694" y="310.561343532193" font-size="20" dy="-2" text-anchor="middle" fill="red">12</text>
<text x="154.498238074494" y="297.607094629806" font-size="20" dy="-2" text-anchor="middle" fill="red">13</text>
<text x="126.598658165911" y="283.282704361505" font-size="20" dy="-2" text-anchor="middle" fill="red">14</text>
<text x="104.650608608521" y="262.693938189913" font-size="20" dy="-2" text-anchor="middle" fill="red">15</text>
<text x="100" y="218.872487688432" font-size="20" dy="-2" text-anchor="middle" fill="red">16</text>
<text x="104.137569048031" y="174.903097207868" font-size="20" dy="-2" text-anchor="middle" fill="red">17</text>
<text x="141.580634854999" y="144.791882474366" font-size="20" dy="-2" text-anchor="middle" fill="red">18</text>
<text x="202.36428616926" y="125.651299400772" font-size="20" dy="-2" text-anchor="middle" fill="red">19</text>
<text x="260.442264563315" y="114.542907118139" font-size="20" dy="-2" text-anchor="middle" fill="red">20</text>
<text x="352.524722186288" y="104.684539796384" font-size="20" dy="-2" text-anchor="middle" fill="red">21</text>
<text x="385.625274570533" y="100" font-size="20" dy="-2" text-anchor="middle" fill="red">22</text>
<text x="466.998370680144" y="100.345419492447" font-size="20" dy="-2" text-anchor="middle" fill="red">23</text>
<text x="563.861732673033" y="107.023077263912" font-size="20" dy="-2" text-anchor="middle" fill="red">24</text>
<text x="626.976456593491" y="114.91207844209" font-size="20" dy="-2" text-anchor="middle" fill="red">25</text>
<text x="685.321812747907" y="116.502772529114" font-size="20" dy="-2" text-anchor="middle" fill="red">26</text>
<text x="745.599889363008" y="118.275337783084" font-size="20" dy="-2" text-anchor="middle" fill="red">27</text>
<text x="755.837607365073" y="118.263801179211" font-size="20" dy="-2" text-anchor="middle" fill="red">28</text>
<text x="796.640539394249" y="109.429477107165" font-size="20" dy="-2" text-anchor="middle" fill="red">29</text>
<text x="800.569770948799" y="186.817694514129" font-size="20" dy="-2" text-anchor="middle" fill="red">30</text>
<polygon points="450.562781902999,337.166109311919 382.599291236899,334.182879274993 453.374320129338,198.504952861707" fill="none" stroke="red"/>
<polygon points="382.599291236899,334.182879274993 317.023198948848,326.549719253302 453.374320129338,198.504952861707" fill="none" stroke="red"/>
<polygon points="317.023198948848,326.549719253302 250.133969690495,317.330615510888 453.374320129338,198.504952861707" fill="none" stroke="red"/>
<polygon points="250.133969690495,317.330615510888 193.738299590694,310.561343532193 453.374320129338,198.504952861707" fill="none" stroke="red"/>
<polygon points="193.738299590694,310.561343532193 154.498238074494,297.607094629806 453.374320129338,198.504952861707" fill="none" stroke="red"/>
<polygon points="154.498238074494,297.607094629806 126.598658165911,283.282704361505 453.374320129338,198.504952861707" fill="none" stroke="red"/>
<polygon points="126.598658165911,283.282704361505 104.650608608521,262.693938189913 453.374320129338,198.504952861707" fill="none" stroke="red"/>
<polygon points="104.650608608521,262.693938189913 100,218.872487688432 453.374320129338,198.504952861707" fill="none" stroke="red"/>
<polygon points="100,218.872487688432 104.137569048031,174.903097207868 453.374320129338,198.504952861707" fill="none" stroke="red"/>
<polygon points="104.137569048031,174.903097207868 141.580634854999,144.791882474366 453.374320129338,198.504952861707" fill="none" stroke="red"/>
<polygon points="141.580634854999,144.791882474366 202.36428616926,125.651299400772 453.374320129338,198.504952861707" fill="none" stroke="red"/>
<polygon points="202.36428616926,125.651299400772 260.442264563315,114.542907118139 453.374320129338,198.504952861707" fill="none" stroke="red"/>
<polygon points="260.442264563315,114.542907118139 352.524722186288,104.684539796384 453.374320129338,198.504952861707" fill="none" stroke="red"/>
<polygon points="352.524722186288,104.684539796384 385.625274570533,100 453.374320129338,198.504952861707" fill="none" stroke="red"/>
<polygon points="385.625274570533,100 466.998370680144,100.345419492447 453.374320129338,198.504952861707" fill="none" stroke="red"/>
<polygon points="466.998370680144,100.345419492447 563.861732673033,107.023077263912 453.374320129338,198.504952861707" fill="none" stroke="red"/>
<polygon points="563.861732673033,107.023077263912 626.976456593491,114.91207844209 453.374320129338,198.504952861707" fill="none" stroke="red"/>
<polygon points="626.976456593491,114.91207844209 685.321812747907,116.502772529114 453.374320129338,198.504952861707" fill="none" stroke="red"/>
<polygon points="685.321812747907,116.502772529114 745.599889363008,118.275337783084 453.374320129338,198.504952861707" fill="none" stroke="red"/>
<polygon points="745.599889363008,118.275337783084 755.837607365073,118.263801179211 453.374320129338,198.504952861707" fill="none" stroke="red"/>
<polygon points="755.837607365073,118.263801179211 796.640539394249,109.429477107165 453.374320129338,198.504952861707" fill="none" stroke="red"/>
<polygon points="796.640539394249,109.429477107165 800.569770948799,186.817694514129 453.374320129338,198.504952861707" fill="none" stroke="red"/>
<polygon points="453.284063169622,240.90536521548 450.562781902999,337.166109311919 453.374320129338,198.504952861707" fill="none" stroke="red"/>
<polygon points="800.569770948799,186.817694514129 799.978689656224,193.099036011353 453.374320129338,198.504952861707" fill="none" stroke="red"/>
<polygon points="800.354647217747,240.90536521548 801.430265873009,317.537595756853 453.284063169622,240.90536521548" fill="none" stroke="red"/>
<polygon points="801.430265873009,317.537595756853 720.995027795935,312.405842904433 453.284063169622,240.90536521548" fill="none" stroke="red"/>
<polygon points="720.995027795935,312.405842904433 613.132531945332,324.191501696814 453.284063169622,240.90536521548" fill="none" stroke="red"/>
<polygon points="613.132531945332,324.191501696814 488.057423115519,332.407599525993 453.284063169622,240.90536521548" fill="none" stroke="red"/>
<polygon points="488.057423115519,332.407599525993 450.562781902999,337.166109311919 453.284063169622,240.90536521548" fill="none" stroke="red"/>
<rect x="0" y="0" width="100" height="100" stroke="green" fill='none'/>

</svg>
