<svg width="482.613968688696" height="711.225669972493" xmlns="http://www.w3.org/2000/svg">

<polygon points="
117.136833311085,103.246666482018 
105.899656807324,339.119769257596 
281.509063962682,329.761948837426 
283.791006690043,383.446970546082 
105.908932997272,383.446970546082 
100,608.151540623519 
209.754024234109,611.225669972493 
248.591576311001,598.196333570658 
288.447654044252,578.324879462719 
316.710349579714,550.795002933198 
340.073361584314,518.918303793752 
366.879695297843,469.418698989914 
375.601169087538,414.718862100878 
382.508220123282,370.2636493911 
382.613968688696,306.37110826298 
370.512251281723,253.201842715466 
355.985737822181,210.813365126242 
331.639449683027,168.940643698161 
296.566175487286,132.705990520852 
246.732627845297,111.059073656748 
198.800699142776,104.502662601061 
155.916873010295,100 
130.470428743234,101.807001801992 
" fill="none" stroke="black"/>
<text x="117.136833311085" y="103.246666482018" font-size="20" dy="-2" text-anchor="middle" fill="red">0</text>
<text x="105.899656807324" y="339.119769257596" font-size="20" dy="-2" text-anchor="middle" fill="red">1</text>
<text x="281.509063962682" y="329.761948837426" font-size="20" dy="-2" text-anchor="middle" fill="red">2</text>
<text x="283.791006690043" y="383.446970546082" font-size="20" dy="-2" text-anchor="middle" fill="red">3</text>
<text x="105.908932997272" y="383.446970546082" font-size="20" dy="-2" text-anchor="middle" fill="red">4</text>
<text x="100" y="608.151540623519" font-size="20" dy="-2" text-anchor="middle" fill="red">5</text>
<text x="209.754024234109" y="611.225669972493" font-size="20" dy="-2" text-anchor="middle" fill="red">6</text>
<text x="248.591576311001" y="598.196333570658" font-size="20" dy="-2" text-anchor="middle" fill="red">7</text>
<text x="288.447654044252" y="578.324879462719" font-size="20" dy="-2" text-anchor="middle" fill="red">8</text>
<text x="316.710349579714" y="550.795002933198" font-size="20" dy="-2" text-anchor="middle" fill="red">9</text>
<text x="340.073361584314" y="518.918303793752" font-size="20" dy="-2" text-anchor="middle" fill="red">10</text>
<text x="366.879695297843" y="469.418698989914" font-size="20" dy="-2" text-anchor="middle" fill="red">11</text>
<text x="375.601169087538" y="414.718862100878" font-size="20" dy="-2" text-anchor="middle" fill="red">12</text>
<text x="382.508220123282" y="370.2636493911" font-size="20" dy="-2" text-anchor="middle" fill="red">13</text>
<text x="382.613968688696" y="306.37110826298" font-size="20" dy="-2" text-anchor="middle" fill="red">14</text>
<text x="370.512251281723" y="253.201842715466" font-size="20" dy="-2" text-anchor="middle" fill="red">15</text>
<text x="355.985737822181" y="210.813365126242" font-size="20" dy="-2" text-anchor="middle" fill="red">16</text>
<text x="331.639449683027" y="168.940643698161" font-size="20" dy="-2" text-anchor="middle" fill="red">17</text>
<text x="296.566175487286" y="132.705990520852" font-size="20" dy="-2" text-anchor="middle" fill="red">18</text>
<text x="246.732627845297" y="111.059073656748" font-size="20" dy="-2" text-anchor="middle" fill="red">19</text>
<text x="198.800699142776" y="104.502662601061" font-size="20" dy="-2" text-anchor="middle" fill="red">20</text>
<text x="155.916873010295" y="100" font-size="20" dy="-2" text-anchor="middle" fill="red">21</text>
<text x="130.470428743234" y="101.807001801992" font-size="20" dy="-2" text-anchor="middle" fill="red">22</text>
<polygon points="296.566175487286,132.705990520852 246.732627845297,111.059073656748 281.509063962682,329.761948837426" fill="none" stroke="red"/>
<polygon points="246.732627845297,111.059073656748 198.800699142776,104.502662601061 281.509063962682,329.761948837426" fill="none" stroke="red"/>
<polygon points="198.800699142776,104.502662601061 155.916873010295,100 281.509063962682,329.761948837426" fill="none" stroke="red"/>
<polygon points="155.916873010295,100 130.470428743234,101.807001801992 281.509063962682,329.761948837426" fill="none" stroke="red"/>
<polygon points="130.470428743234,101.807001801992 117.136833311085,103.246666482018 281.509063962682,329.761948837426" fill="none" stroke="red"/>
<polygon points="117.136833311085,103.246666482018 105.899656807324,339.119769257596 281.509063962682,329.761948837426" fill="none" stroke="red"/>
<polygon points="105.908932997272,383.446970546082 100,608.151540623519 283.791006690043,383.446970546082" fill="none" stroke="red"/>
<polygon points="100,608.151540623519 209.754024234109,611.225669972493 283.791006690043,383.446970546082" fill="none" stroke="red"/>
<polygon points="209.754024234109,611.225669972493 248.591576311001,598.196333570658 283.791006690043,383.446970546082" fill="none" stroke="red"/>
<polygon points="248.591576311001,598.196333570658 288.447654044252,578.324879462719 283.791006690043,383.446970546082" fill="none" stroke="red"/>
<polygon points="288.447654044252,578.324879462719 316.710349579714,550.795002933198 283.791006690043,383.446970546082" fill="none" stroke="red"/>
<polygon points="316.710349579714,550.795002933198 340.073361584314,518.918303793752 283.791006690043,383.446970546082" fill="none" stroke="red"/>
<polygon points="340.073361584314,518.918303793752 366.879695297843,469.418698989914 283.791006690043,383.446970546082" fill="none" stroke="red"/>
<polygon points="366.879695297843,469.418698989914 375.601169087538,414.718862100878 283.791006690043,383.446970546082" fill="none" stroke="red"/>
<polygon points="375.601169087538,414.718862100878 382.508220123282,370.2636493911 283.791006690043,383.446970546082" fill="none" stroke="red"/>
<polygon points="382.508220123282,370.2636493911 382.613968688696,306.37110826298 283.791006690043,383.446970546082" fill="none" stroke="red"/>
<polygon points="382.613968688696,306.37110826298 370.512251281723,253.201842715466 283.791006690043,383.446970546082" fill="none" stroke="red"/>
<polygon points="370.512251281723,253.201842715466 355.985737822181,210.813365126242 283.791006690043,383.446970546082" fill="none" stroke="red"/>
<polygon points="355.985737822181,210.813365126242 331.639449683027,168.940643698161 283.791006690043,383.446970546082" fill="none" stroke="red"/>
<polygon points="331.639449683027,168.940643698161 296.566175487286,132.705990520852 283.791006690043,383.446970546082" fill="none" stroke="red"/>
<polygon points="296.566175487286,132.705990520852 281.509063962682,329.761948837426 283.791006690043,383.446970546082" fill="none" stroke="red"/>
<rect x="0" y="0" width="100" height="100" stroke="green" fill='none'/>

</svg>
