<svg width="464.134369939583" height="378.549959825702" xmlns="http://www.w3.org/2000/svg">

<polygon points="
141.910564815401,100 
156.919228321204,100.773290514886 
170.333815026647,109.04646005418 
180.868970640194,119.397569556698 
199.767834605718,109.481343203626 
226.221494580393,103.965896844096 
259.573915232972,103.762555576267 
289.591242244577,105.309136606038 
312.746914649049,109.180041908958 
334.6276224618,122.510026773042 
349.364669529552,143.841564738369 
361.670526840332,187.289805126556 
364.134369939583,227.112040278917 
342.603943434919,260.38431181863 
319.38593283155,273.417448116538 
295.28331350098,278.549959825702 
263.634803618245,276.86682845549 
223.429633815518,276.979630910637 
204.392735266722,271.23115842666 
188.627107917174,263.340923537731 
171.623622046677,272.546197574815 
148.240860489081,277.159224293172 
124.636946749685,253.249556530616 
110.419384672739,232.637876338263 
108.148493141501,211.287043216134 
100,190.893546719919 
107.588933594261,168.338992661952 
106.34810658765,150.842738171604 
111.887300832473,135.460045472421 
122.220599421021,129.75461603054 
127.449586914192,109.99785970877 
191.043455245838,174.455557367985 
190.681299995104,201.866553968574 
296.871453330016,201.866553968574 
297.808010556298,177.982118334143 
195.745536534048,173.689688067254 
136.616270637672,102.069034506239 
" fill="none" stroke="black"/>
<text x="141.910564815401" y="100" font-size="20" dy="-2" text-anchor="middle" fill="red">0</text>
<text x="156.919228321204" y="100.773290514886" font-size="20" dy="-2" text-anchor="middle" fill="red">1</text>
<text x="170.333815026647" y="109.04646005418" font-size="20" dy="-2" text-anchor="middle" fill="red">2</text>
<text x="180.868970640194" y="119.397569556698" font-size="20" dy="-2" text-anchor="middle" fill="red">3</text>
<text x="199.767834605718" y="109.481343203626" font-size="20" dy="-2" text-anchor="middle" fill="red">4</text>
<text x="226.221494580393" y="103.965896844096" font-size="20" dy="-2" text-anchor="middle" fill="red">5</text>
<text x="259.573915232972" y="103.762555576267" font-size="20" dy="-2" text-anchor="middle" fill="red">6</text>
<text x="289.591242244577" y="105.309136606038" font-size="20" dy="-2" text-anchor="middle" fill="red">7</text>
<text x="312.746914649049" y="109.180041908958" font-size="20" dy="-2" text-anchor="middle" fill="red">8</text>
<text x="334.6276224618" y="122.510026773042" font-size="20" dy="-2" text-anchor="middle" fill="red">9</text>
<text x="349.364669529552" y="143.841564738369" font-size="20" dy="-2" text-anchor="middle" fill="red">10</text>
<text x="361.670526840332" y="187.289805126556" font-size="20" dy="-2" text-anchor="middle" fill="red">11</text>
<text x="364.134369939583" y="227.112040278917" font-size="20" dy="-2" text-anchor="middle" fill="red">12</text>
<text x="342.603943434919" y="260.38431181863" font-size="20" dy="-2" text-anchor="middle" fill="red">13</text>
<text x="319.38593283155" y="273.417448116538" font-size="20" dy="-2" text-anchor="middle" fill="red">14</text>
<text x="295.28331350098" y="278.549959825702" font-size="20" dy="-2" text-anchor="middle" fill="red">15</text>
<text x="263.634803618245" y="276.86682845549" font-size="20" dy="-2" text-anchor="middle" fill="red">16</text>
<text x="223.429633815518" y="276.979630910637" font-size="20" dy="-2" text-anchor="middle" fill="red">17</text>
<text x="204.392735266722" y="271.23115842666" font-size="20" dy="-2" text-anchor="middle" fill="red">18</text>
<text x="188.627107917174" y="263.340923537731" font-size="20" dy="-2" text-anchor="middle" fill="red">19</text>
<text x="171.623622046677" y="272.546197574815" font-size="20" dy="-2" text-anchor="middle" fill="red">20</text>
<text x="148.240860489081" y="277.159224293172" font-size="20" dy="-2" text-anchor="middle" fill="red">21</text>
<text x="124.636946749685" y="253.249556530616" font-size="20" dy="-2" text-anchor="middle" fill="red">22</text>
<text x="110.419384672739" y="232.637876338263" font-size="20" dy="-2" text-anchor="middle" fill="red">23</text>
<text x="108.148493141501" y="211.287043216134" font-size="20" dy="-2" text-anchor="middle" fill="red">24</text>
<text x="100" y="190.893546719919" font-size="20" dy="-2" text-anchor="middle" fill="red">25</text>
<text x="107.588933594261" y="168.338992661952" font-size="20" dy="-2" text-anchor="middle" fill="red">26</text>
<text x="106.34810658765" y="150.842738171604" font-size="20" dy="-2" text-anchor="middle" fill="red">27</text>
<text x="111.887300832473" y="135.460045472421" font-size="20" dy="-2" text-anchor="middle" fill="red">28</text>
<text x="122.220599421021" y="129.75461603054" font-size="20" dy="-2" text-anchor="middle" fill="red">29</text>
<text x="127.449586914192" y="109.99785970877" font-size="20" dy="-2" text-anchor="middle" fill="red">30</text>
<text x="191.043455245838" y="174.455557367985" font-size="20" dy="-2" text-anchor="middle" fill="red">31</text>
<text x="190.681299995104" y="201.866553968574" font-size="20" dy="-2" text-anchor="middle" fill="red">32</text>
<text x="296.871453330016" y="201.866553968574" font-size="20" dy="-2" text-anchor="middle" fill="red">33</text>
<text x="297.808010556298" y="177.982118334143" font-size="20" dy="-2" text-anchor="middle" fill="red">34</text>
<text x="195.745536534048" y="173.689688067254" font-size="20" dy="-2" text-anchor="middle" fill="red">35</text>
<text x="136.616270637672" y="102.069034506239" font-size="20" dy="-2" text-anchor="middle" fill="red">36</text>
<polygon points="312.746914649049,109.180041908958 334.6276224618,122.510026773042 296.871453330016,201.866553968574" fill="none" stroke="red"/>
<polygon points="334.6276224618,122.510026773042 349.364669529552,143.841564738369 296.871453330016,201.866553968574" fill="none" stroke="red"/>
<polygon points="349.364669529552,143.841564738369 361.670526840332,187.289805126556 296.871453330016,201.866553968574" fill="none" stroke="red"/>
<polygon points="361.670526840332,187.289805126556 364.134369939583,227.112040278917 296.871453330016,201.866553968574" fill="none" stroke="red"/>
<polygon points="364.134369939583,227.112040278917 342.603943434919,260.38431181863 296.871453330016,201.866553968574" fill="none" stroke="red"/>
<polygon points="342.603943434919,260.38431181863 319.38593283155,273.417448116538 296.871453330016,201.866553968574" fill="none" stroke="red"/>
<polygon points="319.38593283155,273.417448116538 295.28331350098,278.549959825702 296.871453330016,201.866553968574" fill="none" stroke="red"/>
<polygon points="295.28331350098,278.549959825702 263.634803618245,276.86682845549 296.871453330016,201.866553968574" fill="none" stroke="red"/>
<polygon points="263.634803618245,276.86682845549 223.429633815518,276.979630910637 296.871453330016,201.866553968574" fill="none" stroke="red"/>
<polygon points="223.429633815518,276.979630910637 204.392735266722,271.23115842666 296.871453330016,201.866553968574" fill="none" stroke="red"/>
<polygon points="204.392735266722,271.23115842666 188.627107917174,263.340923537731 296.871453330016,201.866553968574" fill="none" stroke="red"/>
<polygon points="188.627107917174,263.340923537731 171.623622046677,272.546197574815 296.871453330016,201.866553968574" fill="none" stroke="red"/>
<polygon points="171.623622046677,272.546197574815 148.240860489081,277.159224293172 296.871453330016,201.866553968574" fill="none" stroke="red"/>
<polygon points="148.240860489081,277.159224293172 124.636946749685,253.249556530616 296.871453330016,201.866553968574" fill="none" stroke="red"/>
<polygon points="124.636946749685,253.249556530616 110.419384672739,232.637876338263 296.871453330016,201.866553968574" fill="none" stroke="red"/>
<polygon points="110.419384672739,232.637876338263 108.148493141501,211.287043216134 296.871453330016,201.866553968574" fill="none" stroke="red"/>
<polygon points="297.808010556298,177.982118334143 312.746914649049,109.180041908958 296.871453330016,201.866553968574" fill="none" stroke="red"/>
<polygon points="108.148493141501,211.287043216134 190.681299995104,201.866553968574 296.871453330016,201.866553968574" fill="none" stroke="red"/>
<polygon points="141.910564815401,100 156.919228321204,100.773290514886 297.808010556298,177.982118334143" fill="none" stroke="red"/>
<polygon points="156.919228321204,100.773290514886 170.333815026647,109.04646005418 297.808010556298,177.982118334143" fill="none" stroke="red"/>
<polygon points="170.333815026647,109.04646005418 180.868970640194,119.397569556698 297.808010556298,177.982118334143" fill="none" stroke="red"/>
<polygon points="180.868970640194,119.397569556698 199.767834605718,109.481343203626 297.808010556298,177.982118334143" fill="none" stroke="red"/>
<polygon points="199.767834605718,109.481343203626 226.221494580393,103.965896844096 297.808010556298,177.982118334143" fill="none" stroke="red"/>
<polygon points="226.221494580393,103.965896844096 259.573915232972,103.762555576267 297.808010556298,177.982118334143" fill="none" stroke="red"/>
<polygon points="259.573915232972,103.762555576267 289.591242244577,105.309136606038 297.808010556298,177.982118334143" fill="none" stroke="red"/>
<polygon points="289.591242244577,105.309136606038 312.746914649049,109.180041908958 297.808010556298,177.982118334143" fill="none" stroke="red"/>
<polygon points="195.745536534048,173.689688067254 136.616270637672,102.069034506239 297.808010556298,177.982118334143" fill="none" stroke="red"/>
<polygon points="136.616270637672,102.069034506239 141.910564815401,100 297.808010556298,177.982118334143" fill="none" stroke="red"/>
<polygon points="108.148493141501,211.287043216134 100,190.893546719919 190.681299995104,201.866553968574" fill="none" stroke="red"/>
<polygon points="100,190.893546719919 107.588933594261,168.338992661952 190.681299995104,201.866553968574" fill="none" stroke="red"/>
<polygon points="107.588933594261,168.338992661952 106.34810658765,150.842738171604 190.681299995104,201.866553968574" fill="none" stroke="red"/>
<polygon points="106.34810658765,150.842738171604 111.887300832473,135.460045472421 190.681299995104,201.866553968574" fill="none" stroke="red"/>
<polygon points="111.887300832473,135.460045472421 122.220599421021,129.75461603054 190.681299995104,201.866553968574" fill="none" stroke="red"/>
<polygon points="122.220599421021,129.75461603054 127.449586914192,109.99785970877 190.681299995104,201.866553968574" fill="none" stroke="red"/>
<polygon points="127.449586914192,109.99785970877 191.043455245838,174.455557367985 190.681299995104,201.866553968574" fill="none" stroke="red"/>
<polygon points="191.043455245838,174.455557367985 136.616270637672,102.069034506239 127.449586914192,109.99785970877" fill="none" stroke="red"/>
<polygon points="195.745536534048,173.689688067254 136.616270637672,102.069034506239 191.043455245838,174.455557367985" fill="none" stroke="red"/>
<rect x="0" y="0" width="100" height="100" stroke="green" fill='none'/>

</svg>
