<svg width="689.850089030251" height="620.404136169945" xmlns="http://www.w3.org/2000/svg">

<polygon points="
548.406001183396,235.274122291374 
323.32897951858,235.307312965037 
322.64303892955,273.188935172092 
546.458814995183,273.188935172092 
567.025969108185,351.319780974143 
573.254752198889,380.184603502825 
583.577051707996,420.721479602899 
589.850089030251,451.267962930492 
583.123445834605,483.418662151784 
568.563803654557,505.678540621584 
547.310708952527,513.389840469223 
520.570089538259,520.404136169945 
472.498930516748,500.213143025122 
418.409196004396,475.13205729399 
363.545012439913,452.595589877001 
313.681557040615,428.244698966449 
264.293834630482,405.984820496649 
219.917903943421,382.330933733015 
167.664720040406,363.091406566523 
123.067518195593,331.029215808332 
112.63458310761,318.261870006071 
100,301.766105195697 
104.027135071077,214.99462068345 
113.895828706794,190.333950152046 
124.771306110279,171.957380500785 
154.720357311944,158.968763540772 
194.250449644248,142.362363151523 
240.595693635297,128.942267433895 
283.256772849785,119.405480534806 
328.827567788704,108.53000313132 
378.303798661938,102.179520903852 
445.138751860776,100 
480.066404111848,116.32981144206 
505.855557547785,137.107173154925 
522.838118905212,158.957699982885 
536.955218769757,183.828578114152 
546.060526911231,210.093464539254 
549.114068888201,230.207012778865 
" fill="none" stroke="black"/>
<text x="548.406001183396" y="235.274122291374" font-size="20" dy="-2" text-anchor="middle" fill="red">0</text>
<text x="323.32897951858" y="235.307312965037" font-size="20" dy="-2" text-anchor="middle" fill="red">1</text>
<text x="322.64303892955" y="273.188935172092" font-size="20" dy="-2" text-anchor="middle" fill="red">2</text>
<text x="546.458814995183" y="273.188935172092" font-size="20" dy="-2" text-anchor="middle" fill="red">3</text>
<text x="567.025969108185" y="351.319780974143" font-size="20" dy="-2" text-anchor="middle" fill="red">4</text>
<text x="573.254752198889" y="380.184603502825" font-size="20" dy="-2" text-anchor="middle" fill="red">5</text>
<text x="583.577051707996" y="420.721479602899" font-size="20" dy="-2" text-anchor="middle" fill="red">6</text>
<text x="589.850089030251" y="451.267962930492" font-size="20" dy="-2" text-anchor="middle" fill="red">7</text>
<text x="583.123445834605" y="483.418662151784" font-size="20" dy="-2" text-anchor="middle" fill="red">8</text>
<text x="568.563803654557" y="505.678540621584" font-size="20" dy="-2" text-anchor="middle" fill="red">9</text>
<text x="547.310708952527" y="513.389840469223" font-size="20" dy="-2" text-anchor="middle" fill="red">10</text>
<text x="520.570089538259" y="520.404136169945" font-size="20" dy="-2" text-anchor="middle" fill="red">11</text>
<text x="472.498930516748" y="500.213143025122" font-size="20" dy="-2" text-anchor="middle" fill="red">12</text>
<text x="418.409196004396" y="475.13205729399" font-size="20" dy="-2" text-anchor="middle" fill="red">13</text>
<text x="363.545012439913" y="452.595589877001" font-size="20" dy="-2" text-anchor="middle" fill="red">14</text>
<text x="313.681557040615" y="428.244698966449" font-size="20" dy="-2" text-anchor="middle" fill="red">15</text>
<text x="264.293834630482" y="405.984820496649" font-size="20" dy="-2" text-anchor="middle" fill="red">16</text>
<text x="219.917903943421" y="382.330933733015" font-size="20" dy="-2" text-anchor="middle" fill="red">17</text>
<text x="167.664720040406" y="363.091406566523" font-size="20" dy="-2" text-anchor="middle" fill="red">18</text>
<text x="123.067518195593" y="331.029215808332" font-size="20" dy="-2" text-anchor="middle" fill="red">19</text>
<text x="112.63458310761" y="318.261870006071" font-size="20" dy="-2" text-anchor="middle" fill="red">20</text>
<text x="100" y="301.766105195697" font-size="20" dy="-2" text-anchor="middle" fill="red">21</text>
<text x="104.027135071077" y="214.99462068345" font-size="20" dy="-2" text-anchor="middle" fill="red">22</text>
<text x="113.895828706794" y="190.333950152046" font-size="20" dy="-2" text-anchor="middle" fill="red">23</text>
<text x="124.771306110279" y="171.957380500785" font-size="20" dy="-2" text-anchor="middle" fill="red">24</text>
<text x="154.720357311944" y="158.968763540772" font-size="20" dy="-2" text-anchor="middle" fill="red">25</text>
<text x="194.250449644248" y="142.362363151523" font-size="20" dy="-2" text-anchor="middle" fill="red">26</text>
<text x="240.595693635297" y="128.942267433895" font-size="20" dy="-2" text-anchor="middle" fill="red">27</text>
<text x="283.256772849785" y="119.405480534806" font-size="20" dy="-2" text-anchor="middle" fill="red">28</text>
<text x="328.827567788704" y="108.53000313132" font-size="20" dy="-2" text-anchor="middle" fill="red">29</text>
<text x="378.303798661938" y="102.179520903852" font-size="20" dy="-2" text-anchor="middle" fill="red">30</text>
<text x="445.138751860776" y="100" font-size="20" dy="-2" text-anchor="middle" fill="red">31</text>
<text x="480.066404111848" y="116.32981144206" font-size="20" dy="-2" text-anchor="middle" fill="red">32</text>
<text x="505.855557547785" y="137.107173154925" font-size="20" dy="-2" text-anchor="middle" fill="red">33</text>
<text x="522.838118905212" y="158.957699982885" font-size="20" dy="-2" text-anchor="middle" fill="red">34</text>
<text x="536.955218769757" y="183.828578114152" font-size="20" dy="-2" text-anchor="middle" fill="red">35</text>
<text x="546.060526911231" y="210.093464539254" font-size="20" dy="-2" text-anchor="middle" fill="red">36</text>
<text x="549.114068888201" y="230.207012778865" font-size="20" dy="-2" text-anchor="middle" fill="red">37</text>
<polygon points="264.293834630482,405.984820496649 219.917903943421,382.330933733015 323.32897951858,235.307312965037" fill="none" stroke="red"/>
<polygon points="219.917903943421,382.330933733015 167.664720040406,363.091406566523 323.32897951858,235.307312965037" fill="none" stroke="red"/>
<polygon points="167.664720040406,363.091406566523 123.067518195593,331.029215808332 323.32897951858,235.307312965037" fill="none" stroke="red"/>
<polygon points="123.067518195593,331.029215808332 112.63458310761,318.261870006071 323.32897951858,235.307312965037" fill="none" stroke="red"/>
<polygon points="112.63458310761,318.261870006071 100,301.766105195697 323.32897951858,235.307312965037" fill="none" stroke="red"/>
<polygon points="100,301.766105195697 104.027135071077,214.99462068345 323.32897951858,235.307312965037" fill="none" stroke="red"/>
<polygon points="104.027135071077,214.99462068345 113.895828706794,190.333950152046 323.32897951858,235.307312965037" fill="none" stroke="red"/>
<polygon points="113.895828706794,190.333950152046 124.771306110279,171.957380500785 323.32897951858,235.307312965037" fill="none" stroke="red"/>
<polygon points="124.771306110279,171.957380500785 154.720357311944,158.968763540772 323.32897951858,235.307312965037" fill="none" stroke="red"/>
<polygon points="154.720357311944,158.968763540772 194.250449644248,142.362363151523 323.32897951858,235.307312965037" fill="none" stroke="red"/>
<polygon points="194.250449644248,142.362363151523 240.595693635297,128.942267433895 323.32897951858,235.307312965037" fill="none" stroke="red"/>
<polygon points="240.595693635297,128.942267433895 283.256772849785,119.405480534806 323.32897951858,235.307312965037" fill="none" stroke="red"/>
<polygon points="283.256772849785,119.405480534806 328.827567788704,108.53000313132 323.32897951858,235.307312965037" fill="none" stroke="red"/>
<polygon points="328.827567788704,108.53000313132 378.303798661938,102.179520903852 323.32897951858,235.307312965037" fill="none" stroke="red"/>
<polygon points="378.303798661938,102.179520903852 445.138751860776,100 323.32897951858,235.307312965037" fill="none" stroke="red"/>
<polygon points="445.138751860776,100 480.066404111848,116.32981144206 323.32897951858,235.307312965037" fill="none" stroke="red"/>
<polygon points="480.066404111848,116.32981144206 505.855557547785,137.107173154925 323.32897951858,235.307312965037" fill="none" stroke="red"/>
<polygon points="505.855557547785,137.107173154925 522.838118905212,158.957699982885 323.32897951858,235.307312965037" fill="none" stroke="red"/>
<polygon points="522.838118905212,158.957699982885 536.955218769757,183.828578114152 323.32897951858,235.307312965037" fill="none" stroke="red"/>
<polygon points="536.955218769757,183.828578114152 546.060526911231,210.093464539254 323.32897951858,235.307312965037" fill="none" stroke="red"/>
<polygon points="546.060526911231,210.093464539254 549.114068888201,230.207012778865 323.32897951858,235.307312965037" fill="none" stroke="red"/>
<polygon points="322.64303892955,273.188935172092 264.293834630482,405.984820496649 323.32897951858,235.307312965037" fill="none" stroke="red"/>
<polygon points="549.114068888201,230.207012778865 548.406001183396,235.274122291374 323.32897951858,235.307312965037" fill="none" stroke="red"/>
<polygon points="322.64303892955,273.188935172092 546.458814995183,273.188935172092 322.64303892955,273.188935172092" fill="none" stroke="red"/>
<polygon points="546.458814995183,273.188935172092 567.025969108185,351.319780974143 322.64303892955,273.188935172092" fill="none" stroke="red"/>
<polygon points="567.025969108185,351.319780974143 573.254752198889,380.184603502825 322.64303892955,273.188935172092" fill="none" stroke="red"/>
<polygon points="573.254752198889,380.184603502825 583.577051707996,420.721479602899 322.64303892955,273.188935172092" fill="none" stroke="red"/>
<polygon points="583.577051707996,420.721479602899 589.850089030251,451.267962930492 322.64303892955,273.188935172092" fill="none" stroke="red"/>
<polygon points="589.850089030251,451.267962930492 583.123445834605,483.418662151784 322.64303892955,273.188935172092" fill="none" stroke="red"/>
<polygon points="583.123445834605,483.418662151784 568.563803654557,505.678540621584 322.64303892955,273.188935172092" fill="none" stroke="red"/>
<polygon points="568.563803654557,505.678540621584 547.310708952527,513.389840469223 322.64303892955,273.188935172092" fill="none" stroke="red"/>
<polygon points="547.310708952527,513.389840469223 520.570089538259,520.404136169945 322.64303892955,273.188935172092" fill="none" stroke="red"/>
<polygon points="520.570089538259,520.404136169945 472.498930516748,500.213143025122 322.64303892955,273.188935172092" fill="none" stroke="red"/>
<polygon points="472.498930516748,500.213143025122 418.409196004396,475.13205729399 322.64303892955,273.188935172092" fill="none" stroke="red"/>
<polygon points="418.409196004396,475.13205729399 363.545012439913,452.595589877001 322.64303892955,273.188935172092" fill="none" stroke="red"/>
<polygon points="363.545012439913,452.595589877001 313.681557040615,428.244698966449 322.64303892955,273.188935172092" fill="none" stroke="red"/>
<polygon points="313.681557040615,428.244698966449 264.293834630482,405.984820496649 322.64303892955,273.188935172092" fill="none" stroke="red"/>
<rect x="0" y="0" width="100" height="100" stroke="green" fill='none'/>

</svg>
