<svg width="2304.09780551029" height="928.050237932154" xmlns="http://www.w3.org/2000/svg">

<polygon points="
100.739057062893,808.855098906406 
314.877026421761,825.88040708472 
317.648979460721,490.80351554689 
355.780646226579,492.901357776233 
372.061811189636,824.261445662672 
1746.06670172946,824.261445662672 
1746.29323113095,634.363687233204 
1780.02185491862,635.00688988614 
1773.92981811274,824.920298015192 
1974.83322777523,828.050237932154 
1995.94897618252,773.004375855034 
2038.07483752491,623.320476721183 
2079.01601660873,579.219623291189 
2114.14646223672,555.663695476134 
2156.64596015669,546.018785622015 
2175.7108154334,546.701112523913 
2052.72060888136,341.735040849212 
2077.61184731349,327.737949540558 
2197.59105166541,503.384309043118 
2204.09780551029,468.906847130314 
2195.18021544437,424.205827721242 
2183.35530243809,389.044082694092 
2162.72039105054,349.506681663028 
2119.99592869903,274.834922579088 
2088.35145365356,230.927734181456 
2056.7069786081,187.020545783824 
2010.35178595291,125.555959421994 
1972.22794403685,126.390870894844 
1970.69114353762,99.9999999999999 
1865.117878896,102.481259869171 
1866.64881075789,126.67256548737 
1811.66750369155,129.752035123171 
1816.94066996666,182.527908275515 
1853.6744273171,210.291257823946 
1911.62956854704,222.600920274868 
1948.33593892321,240.099631865623 
1960.89208414259,274.526232254777 
1966.24741134051,358.096019280151 
1961.2461585957,407.233337279026 
1941.50484505444,427.815430930479 
1905.5962181146,434.509981170371 
1844.00643415609,433.941114590463 
1801.48737411164,436.254140189097 
1786.81969317577,434.826887586963 
1742.11084891691,440.811723950684 
1704.75540725046,454.842070870955 
1660.10524936504,482.822560001126 
1597.17819857701,530.648041932305 
1530.58520566123,578.483304925724 
1457.40329797777,630.002115958918 
1407.60712762637,652.863979597387 
1347.51501991813,664.022215401356 
1292.52393178956,663.435742909416 
1245.56857315529,651.829925697321 
1199.35227158392,642.421717549423 
1140.63851116661,620.582561778821 
1069.44881024029,594.377531066547 
992.39947054693,570.387715330502 
929.306141700811,555.892181090072 
866.195206942659,534.797951019707 
803.844847584329,523.96640269457 
729.7380426554,503.634704236475 
673.251234489009,492.054317786206 
613.812110495943,473.149871930245 
569.034798801395,453.473113399774 
544.073136721134,441.075421388688 
526.417928134531,419.126717720992 
508.743157423447,389.846129797813 
494.720635352968,355.423441833555 
473.327104778043,306.356547482812 
446.826685986106,266.834796151333 
426.928875448999,228.761815758918 
407.78577167437,198.751951835087 
376.133471779113,151.912009735262 
315.278832458601,152.074375368454 
313.018624596065,129.3514028138 
224.316518591853,134.720423498859 
221.442451263103,156.723901115101 
193.594984579403,161.930556166967 
199.515265932336,182.444182382736 
190.044458986099,205.19845433656 
224.580607272347,233.700860947884 
262.704449188412,232.865949475035 
273.033642156876,257.033780543856 
283.495857571811,331.058424549965 
285.875394393682,398.505891063068 
272.021106593739,427.137407695967 
250.07631535094,446.258993133667 
213.520573333272,485.215790310133 
179.168309017146,525.633095700353 
146.31958958863,579.977068751094 
123.710077355966,624.762205295434 
110.628102230534,668.055534226851 
104.135041872796,707.665315118495 
100.564954155012,743.601329032604 
102.14283511565,785.389156863963 
100,806.657489842209 
" fill="none" stroke="black"/>
<text x="100.739057062893" y="808.855098906406" font-size="20" dy="-2" text-anchor="middle" fill="red">0</text>
<text x="314.877026421761" y="825.88040708472" font-size="20" dy="-2" text-anchor="middle" fill="red">1</text>
<text x="317.648979460721" y="490.80351554689" font-size="20" dy="-2" text-anchor="middle" fill="red">2</text>
<text x="355.780646226579" y="492.901357776233" font-size="20" dy="-2" text-anchor="middle" fill="red">3</text>
<text x="372.061811189636" y="824.261445662672" font-size="20" dy="-2" text-anchor="middle" fill="red">4</text>
<text x="1746.06670172946" y="824.261445662672" font-size="20" dy="-2" text-anchor="middle" fill="red">5</text>
<text x="1746.29323113095" y="634.363687233204" font-size="20" dy="-2" text-anchor="middle" fill="red">6</text>
<text x="1780.02185491862" y="635.00688988614" font-size="20" dy="-2" text-anchor="middle" fill="red">7</text>
<text x="1773.92981811274" y="824.920298015192" font-size="20" dy="-2" text-anchor="middle" fill="red">8</text>
<text x="1974.83322777523" y="828.050237932154" font-size="20" dy="-2" text-anchor="middle" fill="red">9</text>
<text x="1995.94897618252" y="773.004375855034" font-size="20" dy="-2" text-anchor="middle" fill="red">10</text>
<text x="2038.07483752491" y="623.320476721183" font-size="20" dy="-2" text-anchor="middle" fill="red">11</text>
<text x="2079.01601660873" y="579.219623291189" font-size="20" dy="-2" text-anchor="middle" fill="red">12</text>
<text x="2114.14646223672" y="555.663695476134" font-size="20" dy="-2" text-anchor="middle" fill="red">13</text>
<text x="2156.64596015669" y="546.018785622015" font-size="20" dy="-2" text-anchor="middle" fill="red">14</text>
<text x="2175.7108154334" y="546.701112523913" font-size="20" dy="-2" text-anchor="middle" fill="red">15</text>
<text x="2052.72060888136" y="341.735040849212" font-size="20" dy="-2" text-anchor="middle" fill="red">16</text>
<text x="2077.61184731349" y="327.737949540558" font-size="20" dy="-2" text-anchor="middle" fill="red">17</text>
<text x="2197.59105166541" y="503.384309043118" font-size="20" dy="-2" text-anchor="middle" fill="red">18</text>
<text x="2204.09780551029" y="468.906847130314" font-size="20" dy="-2" text-anchor="middle" fill="red">19</text>
<text x="2195.18021544437" y="424.205827721242" font-size="20" dy="-2" text-anchor="middle" fill="red">20</text>
<text x="2183.35530243809" y="389.044082694092" font-size="20" dy="-2" text-anchor="middle" fill="red">21</text>
<text x="2162.72039105054" y="349.506681663028" font-size="20" dy="-2" text-anchor="middle" fill="red">22</text>
<text x="2119.99592869903" y="274.834922579088" font-size="20" dy="-2" text-anchor="middle" fill="red">23</text>
<text x="2088.35145365356" y="230.927734181456" font-size="20" dy="-2" text-anchor="middle" fill="red">24</text>
<text x="2056.7069786081" y="187.020545783824" font-size="20" dy="-2" text-anchor="middle" fill="red">25</text>
<text x="2010.35178595291" y="125.555959421994" font-size="20" dy="-2" text-anchor="middle" fill="red">26</text>
<text x="1972.22794403685" y="126.390870894844" font-size="20" dy="-2" text-anchor="middle" fill="red">27</text>
<text x="1970.69114353762" y="99.9999999999999" font-size="20" dy="-2" text-anchor="middle" fill="red">28</text>
<text x="1865.117878896" y="102.481259869171" font-size="20" dy="-2" text-anchor="middle" fill="red">29</text>
<text x="1866.64881075789" y="126.67256548737" font-size="20" dy="-2" text-anchor="middle" fill="red">30</text>
<text x="1811.66750369155" y="129.752035123171" font-size="20" dy="-2" text-anchor="middle" fill="red">31</text>
<text x="1816.94066996666" y="182.527908275515" font-size="20" dy="-2" text-anchor="middle" fill="red">32</text>
<text x="1853.6744273171" y="210.291257823946" font-size="20" dy="-2" text-anchor="middle" fill="red">33</text>
<text x="1911.62956854704" y="222.600920274868" font-size="20" dy="-2" text-anchor="middle" fill="red">34</text>
<text x="1948.33593892321" y="240.099631865623" font-size="20" dy="-2" text-anchor="middle" fill="red">35</text>
<text x="1960.89208414259" y="274.526232254777" font-size="20" dy="-2" text-anchor="middle" fill="red">36</text>
<text x="1966.24741134051" y="358.096019280151" font-size="20" dy="-2" text-anchor="middle" fill="red">37</text>
<text x="1961.2461585957" y="407.233337279026" font-size="20" dy="-2" text-anchor="middle" fill="red">38</text>
<text x="1941.50484505444" y="427.815430930479" font-size="20" dy="-2" text-anchor="middle" fill="red">39</text>
<text x="1905.5962181146" y="434.509981170371" font-size="20" dy="-2" text-anchor="middle" fill="red">40</text>
<text x="1844.00643415609" y="433.941114590463" font-size="20" dy="-2" text-anchor="middle" fill="red">41</text>
<text x="1801.48737411164" y="436.254140189097" font-size="20" dy="-2" text-anchor="middle" fill="red">42</text>
<text x="1786.81969317577" y="434.826887586963" font-size="20" dy="-2" text-anchor="middle" fill="red">43</text>
<text x="1742.11084891691" y="440.811723950684" font-size="20" dy="-2" text-anchor="middle" fill="red">44</text>
<text x="1704.75540725046" y="454.842070870955" font-size="20" dy="-2" text-anchor="middle" fill="red">45</text>
<text x="1660.10524936504" y="482.822560001126" font-size="20" dy="-2" text-anchor="middle" fill="red">46</text>
<text x="1597.17819857701" y="530.648041932305" font-size="20" dy="-2" text-anchor="middle" fill="red">47</text>
<text x="1530.58520566123" y="578.483304925724" font-size="20" dy="-2" text-anchor="middle" fill="red">48</text>
<text x="1457.40329797777" y="630.002115958918" font-size="20" dy="-2" text-anchor="middle" fill="red">49</text>
<text x="1407.60712762637" y="652.863979597387" font-size="20" dy="-2" text-anchor="middle" fill="red">50</text>
<text x="1347.51501991813" y="664.022215401356" font-size="20" dy="-2" text-anchor="middle" fill="red">51</text>
<text x="1292.52393178956" y="663.435742909416" font-size="20" dy="-2" text-anchor="middle" fill="red">52</text>
<text x="1245.56857315529" y="651.829925697321" font-size="20" dy="-2" text-anchor="middle" fill="red">53</text>
<text x="1199.35227158392" y="642.421717549423" font-size="20" dy="-2" text-anchor="middle" fill="red">54</text>
<text x="1140.63851116661" y="620.582561778821" font-size="20" dy="-2" text-anchor="middle" fill="red">55</text>
<text x="1069.44881024029" y="594.377531066547" font-size="20" dy="-2" text-anchor="middle" fill="red">56</text>
<text x="992.39947054693" y="570.387715330502" font-size="20" dy="-2" text-anchor="middle" fill="red">57</text>
<text x="929.306141700811" y="555.892181090072" font-size="20" dy="-2" text-anchor="middle" fill="red">58</text>
<text x="866.195206942659" y="534.797951019707" font-size="20" dy="-2" text-anchor="middle" fill="red">59</text>
<text x="803.844847584329" y="523.96640269457" font-size="20" dy="-2" text-anchor="middle" fill="red">60</text>
<text x="729.7380426554" y="503.634704236475" font-size="20" dy="-2" text-anchor="middle" fill="red">61</text>
<text x="673.251234489009" y="492.054317786206" font-size="20" dy="-2" text-anchor="middle" fill="red">62</text>
<text x="613.812110495943" y="473.149871930245" font-size="20" dy="-2" text-anchor="middle" fill="red">63</text>
<text x="569.034798801395" y="453.473113399774" font-size="20" dy="-2" text-anchor="middle" fill="red">64</text>
<text x="544.073136721134" y="441.075421388688" font-size="20" dy="-2" text-anchor="middle" fill="red">65</text>
<text x="526.417928134531" y="419.126717720992" font-size="20" dy="-2" text-anchor="middle" fill="red">66</text>
<text x="508.743157423447" y="389.846129797813" font-size="20" dy="-2" text-anchor="middle" fill="red">67</text>
<text x="494.720635352968" y="355.423441833555" font-size="20" dy="-2" text-anchor="middle" fill="red">68</text>
<text x="473.327104778043" y="306.356547482812" font-size="20" dy="-2" text-anchor="middle" fill="red">69</text>
<text x="446.826685986106" y="266.834796151333" font-size="20" dy="-2" text-anchor="middle" fill="red">70</text>
<text x="426.928875448999" y="228.761815758918" font-size="20" dy="-2" text-anchor="middle" fill="red">71</text>
<text x="407.78577167437" y="198.751951835087" font-size="20" dy="-2" text-anchor="middle" fill="red">72</text>
<text x="376.133471779113" y="151.912009735262" font-size="20" dy="-2" text-anchor="middle" fill="red">73</text>
<text x="315.278832458601" y="152.074375368454" font-size="20" dy="-2" text-anchor="middle" fill="red">74</text>
<text x="313.018624596065" y="129.3514028138" font-size="20" dy="-2" text-anchor="middle" fill="red">75</text>
<text x="224.316518591853" y="134.720423498859" font-size="20" dy="-2" text-anchor="middle" fill="red">76</text>
<text x="221.442451263103" y="156.723901115101" font-size="20" dy="-2" text-anchor="middle" fill="red">77</text>
<text x="193.594984579403" y="161.930556166967" font-size="20" dy="-2" text-anchor="middle" fill="red">78</text>
<text x="199.515265932336" y="182.444182382736" font-size="20" dy="-2" text-anchor="middle" fill="red">79</text>
<text x="190.044458986099" y="205.19845433656" font-size="20" dy="-2" text-anchor="middle" fill="red">80</text>
<text x="224.580607272347" y="233.700860947884" font-size="20" dy="-2" text-anchor="middle" fill="red">81</text>
<text x="262.704449188412" y="232.865949475035" font-size="20" dy="-2" text-anchor="middle" fill="red">82</text>
<text x="273.033642156876" y="257.033780543856" font-size="20" dy="-2" text-anchor="middle" fill="red">83</text>
<text x="283.495857571811" y="331.058424549965" font-size="20" dy="-2" text-anchor="middle" fill="red">84</text>
<text x="285.875394393682" y="398.505891063068" font-size="20" dy="-2" text-anchor="middle" fill="red">85</text>
<text x="272.021106593739" y="427.137407695967" font-size="20" dy="-2" text-anchor="middle" fill="red">86</text>
<text x="250.07631535094" y="446.258993133667" font-size="20" dy="-2" text-anchor="middle" fill="red">87</text>
<text x="213.520573333272" y="485.215790310133" font-size="20" dy="-2" text-anchor="middle" fill="red">88</text>
<text x="179.168309017146" y="525.633095700353" font-size="20" dy="-2" text-anchor="middle" fill="red">89</text>
<text x="146.31958958863" y="579.977068751094" font-size="20" dy="-2" text-anchor="middle" fill="red">90</text>
<text x="123.710077355966" y="624.762205295434" font-size="20" dy="-2" text-anchor="middle" fill="red">91</text>
<text x="110.628102230534" y="668.055534226851" font-size="20" dy="-2" text-anchor="middle" fill="red">92</text>
<text x="104.135041872796" y="707.665315118495" font-size="20" dy="-2" text-anchor="middle" fill="red">93</text>
<text x="100.564954155012" y="743.601329032604" font-size="20" dy="-2" text-anchor="middle" fill="red">94</text>
<text x="102.14283511565" y="785.389156863963" font-size="20" dy="-2" text-anchor="middle" fill="red">95</text>
<text x="100" y="806.657489842209" font-size="20" dy="-2" text-anchor="middle" fill="red">96</text>
<polygon points="273.033642156876,257.033780543856 283.495857571811,331.058424549965 317.648979460721,490.80351554689" fill="none" stroke="red"/>
<polygon points="283.495857571811,331.058424549965 285.875394393682,398.505891063068 317.648979460721,490.80351554689" fill="none" stroke="red"/>
<polygon points="285.875394393682,398.505891063068 272.021106593739,427.137407695967 317.648979460721,490.80351554689" fill="none" stroke="red"/>
<polygon points="272.021106593739,427.137407695967 250.07631535094,446.258993133667 317.648979460721,490.80351554689" fill="none" stroke="red"/>
<polygon points="250.07631535094,446.258993133667 213.520573333272,485.215790310133 317.648979460721,490.80351554689" fill="none" stroke="red"/>
<polygon points="213.520573333272,485.215790310133 179.168309017146,525.633095700353 317.648979460721,490.80351554689" fill="none" stroke="red"/>
<polygon points="179.168309017146,525.633095700353 146.31958958863,579.977068751094 317.648979460721,490.80351554689" fill="none" stroke="red"/>
<polygon points="146.31958958863,579.977068751094 123.710077355966,624.762205295434 317.648979460721,490.80351554689" fill="none" stroke="red"/>
<polygon points="123.710077355966,624.762205295434 110.628102230534,668.055534226851 317.648979460721,490.80351554689" fill="none" stroke="red"/>
<polygon points="110.628102230534,668.055534226851 104.135041872796,707.665315118495 317.648979460721,490.80351554689" fill="none" stroke="red"/>
<polygon points="104.135041872796,707.665315118495 100.564954155012,743.601329032604 317.648979460721,490.80351554689" fill="none" stroke="red"/>
<polygon points="100.564954155012,743.601329032604 102.14283511565,785.389156863963 317.648979460721,490.80351554689" fill="none" stroke="red"/>
<polygon points="102.14283511565,785.389156863963 100,806.657489842209 317.648979460721,490.80351554689" fill="none" stroke="red"/>
<polygon points="100,806.657489842209 314.877026421761,825.88040708472 317.648979460721,490.80351554689" fill="none" stroke="red"/>
<polygon points="355.780646226579,492.901357776233 273.033642156876,257.033780543856 317.648979460721,490.80351554689" fill="none" stroke="red"/>
<polygon points="1292.52393178956,663.435742909416 1245.56857315529,651.829925697321 355.780646226579,492.901357776233" fill="none" stroke="red"/>
<polygon points="1245.56857315529,651.829925697321 1199.35227158392,642.421717549423 355.780646226579,492.901357776233" fill="none" stroke="red"/>
<polygon points="1199.35227158392,642.421717549423 1140.63851116661,620.582561778821 355.780646226579,492.901357776233" fill="none" stroke="red"/>
<polygon points="1140.63851116661,620.582561778821 1069.44881024029,594.377531066547 355.780646226579,492.901357776233" fill="none" stroke="red"/>
<polygon points="1069.44881024029,594.377531066547 992.39947054693,570.387715330502 355.780646226579,492.901357776233" fill="none" stroke="red"/>
<polygon points="992.39947054693,570.387715330502 929.306141700811,555.892181090072 355.780646226579,492.901357776233" fill="none" stroke="red"/>
<polygon points="929.306141700811,555.892181090072 866.195206942659,534.797951019707 355.780646226579,492.901357776233" fill="none" stroke="red"/>
<polygon points="866.195206942659,534.797951019707 803.844847584329,523.96640269457 355.780646226579,492.901357776233" fill="none" stroke="red"/>
<polygon points="803.844847584329,523.96640269457 729.7380426554,503.634704236475 355.780646226579,492.901357776233" fill="none" stroke="red"/>
<polygon points="729.7380426554,503.634704236475 673.251234489009,492.054317786206 355.780646226579,492.901357776233" fill="none" stroke="red"/>
<polygon points="673.251234489009,492.054317786206 613.812110495943,473.149871930245 355.780646226579,492.901357776233" fill="none" stroke="red"/>
<polygon points="613.812110495943,473.149871930245 569.034798801395,453.473113399774 355.780646226579,492.901357776233" fill="none" stroke="red"/>
<polygon points="569.034798801395,453.473113399774 544.073136721134,441.075421388688 355.780646226579,492.901357776233" fill="none" stroke="red"/>
<polygon points="544.073136721134,441.075421388688 526.417928134531,419.126717720992 355.780646226579,492.901357776233" fill="none" stroke="red"/>
<polygon points="526.417928134531,419.126717720992 508.743157423447,389.846129797813 355.780646226579,492.901357776233" fill="none" stroke="red"/>
<polygon points="508.743157423447,389.846129797813 494.720635352968,355.423441833555 355.780646226579,492.901357776233" fill="none" stroke="red"/>
<polygon points="494.720635352968,355.423441833555 473.327104778043,306.356547482812 355.780646226579,492.901357776233" fill="none" stroke="red"/>
<polygon points="473.327104778043,306.356547482812 446.826685986106,266.834796151333 355.780646226579,492.901357776233" fill="none" stroke="red"/>
<polygon points="446.826685986106,266.834796151333 426.928875448999,228.761815758918 355.780646226579,492.901357776233" fill="none" stroke="red"/>
<polygon points="426.928875448999,228.761815758918 407.78577167437,198.751951835087 355.780646226579,492.901357776233" fill="none" stroke="red"/>
<polygon points="407.78577167437,198.751951835087 376.133471779113,151.912009735262 355.780646226579,492.901357776233" fill="none" stroke="red"/>
<polygon points="376.133471779113,151.912009735262 315.278832458601,152.074375368454 355.780646226579,492.901357776233" fill="none" stroke="red"/>
<polygon points="315.278832458601,152.074375368454 273.033642156876,257.033780543856 355.780646226579,492.901357776233" fill="none" stroke="red"/>
<polygon points="372.061811189636,824.261445662672 1746.06670172946,824.261445662672 355.780646226579,492.901357776233" fill="none" stroke="red"/>
<polygon points="1746.06670172946,824.261445662672 1292.52393178956,663.435742909416 355.780646226579,492.901357776233" fill="none" stroke="red"/>
<polygon points="313.018624596065,129.3514028138 224.316518591853,134.720423498859 315.278832458601,152.074375368454" fill="none" stroke="red"/>
<polygon points="224.316518591853,134.720423498859 221.442451263103,156.723901115101 315.278832458601,152.074375368454" fill="none" stroke="red"/>
<polygon points="221.442451263103,156.723901115101 193.594984579403,161.930556166967 315.278832458601,152.074375368454" fill="none" stroke="red"/>
<polygon points="193.594984579403,161.930556166967 199.515265932336,182.444182382736 315.278832458601,152.074375368454" fill="none" stroke="red"/>
<polygon points="199.515265932336,182.444182382736 190.044458986099,205.19845433656 315.278832458601,152.074375368454" fill="none" stroke="red"/>
<polygon points="190.044458986099,205.19845433656 224.580607272347,233.700860947884 315.278832458601,152.074375368454" fill="none" stroke="red"/>
<polygon points="224.580607272347,233.700860947884 262.704449188412,232.865949475035 315.278832458601,152.074375368454" fill="none" stroke="red"/>
<polygon points="262.704449188412,232.865949475035 273.033642156876,257.033780543856 315.278832458601,152.074375368454" fill="none" stroke="red"/>
<polygon points="1347.51501991813,664.022215401356 1292.52393178956,663.435742909416 1746.06670172946,824.261445662672" fill="none" stroke="red"/>
<polygon points="1941.50484505444,427.815430930479 1905.5962181146,434.509981170371 1746.29323113095,634.363687233204" fill="none" stroke="red"/>
<polygon points="1905.5962181146,434.509981170371 1844.00643415609,433.941114590463 1746.29323113095,634.363687233204" fill="none" stroke="red"/>
<polygon points="1844.00643415609,433.941114590463 1801.48737411164,436.254140189097 1746.29323113095,634.363687233204" fill="none" stroke="red"/>
<polygon points="1801.48737411164,436.254140189097 1786.81969317577,434.826887586963 1746.29323113095,634.363687233204" fill="none" stroke="red"/>
<polygon points="1786.81969317577,434.826887586963 1742.11084891691,440.811723950684 1746.29323113095,634.363687233204" fill="none" stroke="red"/>
<polygon points="1742.11084891691,440.811723950684 1704.75540725046,454.842070870955 1746.29323113095,634.363687233204" fill="none" stroke="red"/>
<polygon points="1704.75540725046,454.842070870955 1660.10524936504,482.822560001126 1746.29323113095,634.363687233204" fill="none" stroke="red"/>
<polygon points="1660.10524936504,482.822560001126 1597.17819857701,530.648041932305 1746.29323113095,634.363687233204" fill="none" stroke="red"/>
<polygon points="1597.17819857701,530.648041932305 1530.58520566123,578.483304925724 1746.29323113095,634.363687233204" fill="none" stroke="red"/>
<polygon points="1530.58520566123,578.483304925724 1457.40329797777,630.002115958918 1746.29323113095,634.363687233204" fill="none" stroke="red"/>
<polygon points="1457.40329797777,630.002115958918 1407.60712762637,652.863979597387 1746.29323113095,634.363687233204" fill="none" stroke="red"/>
<polygon points="1407.60712762637,652.863979597387 1347.51501991813,664.022215401356 1746.29323113095,634.363687233204" fill="none" stroke="red"/>
<polygon points="1347.51501991813,664.022215401356 1746.06670172946,824.261445662672 1746.29323113095,634.363687233204" fill="none" stroke="red"/>
<polygon points="1780.02185491862,635.00688988614 1941.50484505444,427.815430930479 1746.29323113095,634.363687233204" fill="none" stroke="red"/>
<polygon points="1773.92981811274,824.920298015192 1974.83322777523,828.050237932154 1780.02185491862,635.00688988614" fill="none" stroke="red"/>
<polygon points="1974.83322777523,828.050237932154 1995.94897618252,773.004375855034 1780.02185491862,635.00688988614" fill="none" stroke="red"/>
<polygon points="1995.94897618252,773.004375855034 2038.07483752491,623.320476721183 1780.02185491862,635.00688988614" fill="none" stroke="red"/>
<polygon points="2038.07483752491,623.320476721183 2079.01601660873,579.219623291189 1780.02185491862,635.00688988614" fill="none" stroke="red"/>
<polygon points="2079.01601660873,579.219623291189 2114.14646223672,555.663695476134 1780.02185491862,635.00688988614" fill="none" stroke="red"/>
<polygon points="2114.14646223672,555.663695476134 1941.50484505444,427.815430930479 1780.02185491862,635.00688988614" fill="none" stroke="red"/>
<polygon points="1948.33593892321,240.099631865623 1960.89208414259,274.526232254777 2052.72060888136,341.735040849212" fill="none" stroke="red"/>
<polygon points="1960.89208414259,274.526232254777 1966.24741134051,358.096019280151 2052.72060888136,341.735040849212" fill="none" stroke="red"/>
<polygon points="1966.24741134051,358.096019280151 1961.2461585957,407.233337279026 2052.72060888136,341.735040849212" fill="none" stroke="red"/>
<polygon points="1961.2461585957,407.233337279026 1941.50484505444,427.815430930479 2052.72060888136,341.735040849212" fill="none" stroke="red"/>
<polygon points="1941.50484505444,427.815430930479 2114.14646223672,555.663695476134 2052.72060888136,341.735040849212" fill="none" stroke="red"/>
<polygon points="2114.14646223672,555.663695476134 2156.64596015669,546.018785622015 2052.72060888136,341.735040849212" fill="none" stroke="red"/>
<polygon points="2156.64596015669,546.018785622015 2175.7108154334,546.701112523913 2052.72060888136,341.735040849212" fill="none" stroke="red"/>
<polygon points="2077.61184731349,327.737949540558 1948.33593892321,240.099631865623 2052.72060888136,341.735040849212" fill="none" stroke="red"/>
<polygon points="2197.59105166541,503.384309043118 2204.09780551029,468.906847130314 2077.61184731349,327.737949540558" fill="none" stroke="red"/>
<polygon points="2204.09780551029,468.906847130314 2195.18021544437,424.205827721242 2077.61184731349,327.737949540558" fill="none" stroke="red"/>
<polygon points="2195.18021544437,424.205827721242 2183.35530243809,389.044082694092 2077.61184731349,327.737949540558" fill="none" stroke="red"/>
<polygon points="2183.35530243809,389.044082694092 2162.72039105054,349.506681663028 2077.61184731349,327.737949540558" fill="none" stroke="red"/>
<polygon points="2162.72039105054,349.506681663028 2119.99592869903,274.834922579088 2077.61184731349,327.737949540558" fill="none" stroke="red"/>
<polygon points="2119.99592869903,274.834922579088 2088.35145365356,230.927734181456 2077.61184731349,327.737949540558" fill="none" stroke="red"/>
<polygon points="2088.35145365356,230.927734181456 2056.7069786081,187.020545783824 2077.61184731349,327.737949540558" fill="none" stroke="red"/>
<polygon points="2056.7069786081,187.020545783824 2010.35178595291,125.555959421994 2077.61184731349,327.737949540558" fill="none" stroke="red"/>
<polygon points="2010.35178595291,125.555959421994 1972.22794403685,126.390870894844 2077.61184731349,327.737949540558" fill="none" stroke="red"/>
<polygon points="1972.22794403685,126.390870894844 1948.33593892321,240.099631865623 2077.61184731349,327.737949540558" fill="none" stroke="red"/>
<polygon points="1970.69114353762,99.9999999999999 1865.117878896,102.481259869171 1972.22794403685,126.390870894844" fill="none" stroke="red"/>
<polygon points="1865.117878896,102.481259869171 1866.64881075789,126.67256548737 1972.22794403685,126.390870894844" fill="none" stroke="red"/>
<polygon points="1866.64881075789,126.67256548737 1811.66750369155,129.752035123171 1972.22794403685,126.390870894844" fill="none" stroke="red"/>
<polygon points="1811.66750369155,129.752035123171 1816.94066996666,182.527908275515 1972.22794403685,126.390870894844" fill="none" stroke="red"/>
<polygon points="1816.94066996666,182.527908275515 1853.6744273171,210.291257823946 1972.22794403685,126.390870894844" fill="none" stroke="red"/>
<polygon points="1853.6744273171,210.291257823946 1911.62956854704,222.600920274868 1972.22794403685,126.390870894844" fill="none" stroke="red"/>
<polygon points="1911.62956854704,222.600920274868 1948.33593892321,240.099631865623 1972.22794403685,126.390870894844" fill="none" stroke="red"/>
<rect x="0" y="0" width="100" height="100" stroke="green" fill='none'/>

</svg>
